{
.appVersion = "3343";
.formatVersion = 3;
DisplayStrings = (
"Hello there."
);
axes = (
{
name = Weight;
tag = wght;
}
);
classes = (
{
automatic = 1;
code = "A Aacute Abreve Acircumflex Adieresis Agrave Amacron Aogonek Aring Atilde AE AEacute B C Cacute Ccaron Ccedilla Ccircumflex Cdotaccent D Dcaron Dcroat Eth E Eacute Ecaron Ecircumflex Edieresis Edotaccent Egrave Emacron Eogonek Etilde F G Gbreve Gcircumflex Gcommaaccent Gdotaccent H Hbar Hcircumflex I IJ Iacute Icircumflex Idieresis Idotaccent Igrave Imacron Iogonek Itilde J Jcircumflex K Kcommaaccent L Lacute Lcaron Lcommaaccent Lslash M N Nacute Ncaron Ncommaaccent Ntilde Eng O Oacute Obreve Ocircumflex Odieresis Ograve Ohungarumlaut Omacron Oslash Oslashacute Otilde OE P Thorn Q R Racute Rcaron Rcommaaccent S Sacute Scaron Scedilla Scircumflex Scommaaccent Germandbls T Tbar Tcaron Tcedilla Tcommaaccent U Uacute Ubreve Ucircumflex Udieresis Ugrave Uhungarumlaut Umacron Uogonek Uring Utilde V W Wacute Wcircumflex Wdieresis Wgrave X Y Yacute Ycircumflex Ydieresis Ygrave Ytilde Z Zacute Zcaron Zdotaccent M.ss01";
name = Uppercase;
},
{
automatic = 1;

glyphs = (
{
color = 4;
glyphname = A;
kernLeft = A;
kernRight = A;
lastChange = "2025-06-08 13:06:26 +0000";
layers = (
{
anchors = (
{
name = ogonek;
pos = (830,0);
},
{
name = top;
pos = (419,800);
}
);
layerId = m01;
shapes = (
{
closed = 1;
nodes = (
(409,738,l),
(128,108,ls),
(104,54,o),
(68,28,o),
(8,20,c),
(8,0,l),
(228,0,l),
(228,20,l),
(164,28,o),
(152,46,o),
(180,108,cs),
(391,582,l),
(602,108,ls),
(630,46,o),
(618,28,o),
(554,20,c),
(554,0,l),
(830,0,l),
(830,20,l),
(770,28,o),
(734,53,o),
(710,108,cs),
(429,738,l)
);
},
{
closed = 1;
nodes = (
(233,256,l),
(549,256,l),
(549,304,l),
(233,304,l)
);
}
);
width = 838;
}
);
unicode = 65;
},
{
color = 10;
glyphname = AE;
kernLeft = AE;
kernRight = E;
lastChange = "2025-05-10 23:48:14 +0000";
layers = (
{
anchors = (
{
name = top;
pos = (651,800);
}
);
layerId = m01;
shapes = (
{
closed = 1;
nodes = (
(375,728,l),
(375,708,l),
(431,702,o),
(447,682,o),
(411,620,cs),
(116,108,ls),
(84,52,o),
(64,28,o),
(0,20,c),
(0,0,l),
(207,0,l),
(207,20,l),
(151,26,o),
(135,46,o),
(171,108,cs),
(256,256,l),
(473,256,l),
(473,108,ls),
(473,52,o),
(449,28,o),
(385,20,c),
(385,0,l),
(943,0,l),
(977,196,l),
(957,196,l),
(925,92,o),
(877,48,o),
(781,48,cs),
(633,48,ls),
(594,48,o),
(573,69,o),
(573,108,cs),
(573,348,l),
(709,348,ls),
(765,348,o),
(789,324,o),
(797,260,c),
(817,260,l),
(817,484,l),
(797,484,l),
(789,420,o),
(765,396,o),
(709,396,cs),
(573,396,l),
(573,650,ls),
(573,669,o),
(584,680,o),
(603,680,cs),
(768,680,ls),
(864,680,o),
(912,636,o),
(944,532,c),
(964,532,l),
(930,728,l)
);
},
{
closed = 1;
nodes = (
(466,620,l),
(473,632,l),
(473,304,l),
(284,304,l)
);
}
);
width = 1013;
}
);
metricRight = "=E";
unicode = 198;
},
{
color = 4;
glyphname = B;
kernLeft = H;
kernRight = B;
lastChange = "2025-05-10 23:08:46 +0000";
layers = (
{
layerId = m01;
shapes = (
{
closed = 1;
nodes = (
(344,0,ls),
(539,0,o),
(644,70,o),
(644,196,cs),
(644,308,o),
(567,385,o),
(419,387,c),
(531,403,o),
(588,467,o),
(588,552,cs),
(588,668,o),
(489,728,o),
(304,728,cs),
(40,728,l),
(40,708,l),
(104,700,o),
(128,676,o),
(128,620,cs),
(128,108,ls),
(128,52,o),
(104,28,o),
(40,20,c),
(40,0,l)
);
},
{
closed = 1;
nodes = (
(228,356,l),
(324,356,ls),
(436,356,o),
(532,330,o),
(532,198,cs),
(532,106,o),
(452,48,o),
(340,48,cs),
(288,48,ls),
(249,48,o),
(228,69,o),
(228,108,cs)
);
},
{
closed = 1;
nodes = (
(228,650,ls),
(228,669,o),
(239,680,o),
(258,680,cs),
(304,680,ls),
(411,680,o),
(478,636,o),
(478,546,cs),
(478,446,o),
(411,404,o),
(324,404,cs),
(228,404,l)
);
}
);
width = 696;
}
);
metricLeft = "=H";
unicode = 66;
},
{
color = 4;
glyphname = C;
kernLeft = O;
kernRight = C;
lastChange = "2025-05-10 23:47:13 +0000";
layers = (
{
anchors = (
{
name = bottom;
pos = (428,0);
},
{
name = top;
pos = (428,800);
}
);
guides = (
{
angle = -24;
pos = (716,224);
}
);
layerId = m01;
shapes = (
{
closed = 1;
nodes = (
(599,-12,o),
(676,96,o),
(716,224,c),
(696,233,l),
(644,125,o),
(553,64,o),
(441,64,cs),
(265,64,o),
(164,212,o),
(164,392,cs),
(164,563,o),
(271,692,o),
(416,692,cs),
(502,692,o),
(569,647,o),
(601,527,c),
(694,568,l),
(654,684,o),
(559,740,o),
(428,740,cs),
(213,740,o),
(52,579,o),
(52,364,cs),
(52,144,o),
(200,-12,o),
(419,-12,cs)
);
}
);
width = 748;
}
);
metricLeft = "=O";
unicode = 67;
},
{
color = 4;
glyphname = D;
kernLeft = H;
kernRight = O;
lastChange = "2025-05-10 23:47:13 +0000";
layers = (
{
anchors = (
{
name = top;
pos = (384,800);
}
);
layerId = m01;
shapes = (
{
closed = 1;
nodes = (
(373,0,ls),
(591,0,o),
(755,155,o),
(755,366,cs),
(755,577,o),
(591,728,o),
(373,728,cs),
(40,728,l),
(40,708,l),
(104,700,o),
(128,676,o),
(128,620,cs),
(128,108,ls),
(128,52,o),
(104,28,o),
(40,20,c),
(40,0,l)
);
},
{
closed = 1;
nodes = (
(288,48,ls),
(249,48,o),
(228,69,o),
(228,108,cs),
(228,650,ls),
(228,669,o),
(239,680,o),
(258,680,cs),
(361,680,ls),
(565,680,o),
(643,502,o),
(643,338,cs),
(643,174,o),
(537,48,o),
(385,48,cs)
);
}
);
width = 807;
}
);
metricLeft = "=H";
metricRight = "=O";
unicode = 68;
},
{
color = 10;
glyphname = Eth;
kernLeft = H;
kernRight = O;
lastChange = "2025-05-10 23:08:46 +0000";
layers = (
{
layerId = m01;
shapes = (
{
ref = D;
},
{
closed = 1;
nodes = (
(400,340,l),
(400,388,l),
(40,388,l),
(40,340,l)
);
}
);
width = 807;
}
);
metricRight = "=O";
unicode = 208;
},
{
color = 4;
glyphname = E;
kernLeft = H;
kernRight = E;
lastChange = "2025-05-10 23:47:13 +0000";
layers = (
{
anchors = (
{
name = ogonek;
pos = (598,0);
},
{
name = top;
pos = (346,800);
}
);
layerId = m01;
shapes = (
{
closed = 1;
nodes = (
(598,0,l),
(632,196,l),
(612,196,l),
(580,92,o),
(532,48,o),
(436,48,cs),
(288,48,ls),
(249,48,o),
(228,69,o),
(228,108,cs),
(228,348,l),
(364,348,ls),
(420,348,o),
(444,324,o),
(452,260,c),
(472,260,l),
(472,484,l),
(452,484,l),
(444,420,o),
(420,396,o),
(364,396,cs),
(228,396,l),
(228,650,ls),
(228,669,o),
(239,680,o),
(258,680,cs),
(423,680,ls),
(519,680,o),
(567,636,o),
(599,532,c),
(619,532,l),
(585,728,l),
(40,728,l),
(40,708,l),
(104,700,o),
(128,676,o),
(128,620,cs),
(128,108,ls),
(128,52,o),
(104,28,o),
(40,20,c),
(40,0,l)
);
}
);
width = 668;
}
);
metricLeft = "=H";
unicode = 69;
},
{
color = 4;
glyphname = F;
kernLeft = H;
kernRight = F;
lastChange = "2025-05-10 23:08:46 +0000";
layers = (
{
layerId = m01;
shapes = (
{
closed = 1;
nodes = (
(128,52,o),
(104,28,o),
(40,20,c),
(40,0,l),
(340,0,l),
(340,20,l),
(252,28,o),
(228,52,o),
(228,108,cs),
(228,348,l),
(364,348,ls),
(420,348,o),
(444,324,o),
(452,260,c),
(472,260,l),
(472,484,l),
(452,484,l),
(444,420,o),
(420,396,o),
(364,396,cs),
(228,396,l),
(228,650,ls),
(228,669,o),
(239,680,o),
(258,680,cs),
(423,680,ls),
(519,680,o),
(567,636,o),
(599,532,c),
(619,532,l),
(585,728,l),
(40,728,l),
(40,708,l),
(104,700,o),
(128,676,o),
(128,620,cs),
(128,108,ls)
);
}
);
width = 635;
}
);
metricLeft = "=H";
unicode = 70;
},
{
color = 4;
glyphname = G;
kernLeft = O;
kernRight = G;
lastChange = "2025-05-10 23:47:13 +0000";
layers = (
{
anchors = (
{
name = bottom;
pos = (420,0);
},
{
name = top;
pos = (420,800);
}
);
layerId = m01;
shapes = (
{
closed = 1;
nodes = (
(544,-12,o),
(636,31,o),
(702,93,c),
(702,344,l),
(490,344,l),
(490,324,l),
(578,316,o),
(602,292,o),
(602,236,cs),
(602,150,ls),
(602,106,o),
(578,73,o),
(536,57,cs),
(505,44,o),
(472,36,o),
(437,36,cs),
(253,36,o),
(164,219,o),
(164,392,cs),
(164,563,o),
(271,692,o),
(416,692,cs),
(502,692,o),
(569,647,o),
(601,527,c),
(694,568,l),
(654,684,o),
(559,740,o),
(428,740,cs),
(213,740,o),
(52,579,o),
(52,364,cs),
(52,149,o),
(219,-12,o),
(420,-12,cs)
);
}
);
width = 770;
}
);
metricLeft = "=O";
unicode = 71;
},
{
color = 4;
glyphname = H;
kernLeft = H;
kernRight = H;
lastChange = "2025-05-10 23:47:13 +0000";
layers = (
{
anchors = (
{
name = top;
pos = (420,800);
}
);
layerId = m01;
shapes = (
{
closed = 1;
nodes = (
(228,620,ls),
(228,676,o),
(252,700,o),
(316,708,c),
(316,728,l),
(40,728,l),
(40,708,l),
(104,700,o),
(128,676,o),
(128,620,cs),
(128,108,ls),
(128,52,o),
(104,28,o),
(40,20,c),
(40,0,l),
(316,0,l),
(316,20,l),
(252,28,o),
(228,52,o),
(228,108,cs),
(228,348,l),
(612,348,l),
(612,108,ls),
(612,52,o),
(588,28,o),
(524,20,c),
(524,0,l),
(800,0,l),
(800,20,l),
(736,28,o),
(712,52,o),
(712,108,cs),
(712,620,ls),
(712,676,o),
(736,700,o),
(800,708,c),
(800,728,l),
(524,728,l),
(524,708,l),
(588,700,o),
(612,676,o),
(612,620,cs),
(612,396,l),
(228,396,l)
);
}
);
width = 840;
}
);
unicode = 72;
},
{
color = 10;
glyphname = Hbar;
kernLeft = H;
kernRight = H;
lastChange = "2025-05-10 23:08:46 +0000";
layers = (
{
layerId = m01;
shapes = (
{
ref = H;
},
{
closed = 1;
nodes = (
(800,497,l),
(800,545,l),
(40,545,l),
(40,497,l)
);
}
);
width = 840;
}
);
metricLeft = "=H";
metricRight = "=H";
unicode = 294;
},
{
color = 4;
glyphname = I;
kernLeft = H;
kernRight = H;
lastChange = "2025-05-10 23:47:13 +0000";
layers = (
{
anchors = (
{
name = ogonek;
pos = (320,0);
},
{
name = top;
pos = (182,800);
}
);
layerId = m01;
shapes = (
{
closed = 1;
nodes = (
(320,0,l),
(320,20,l),
(256,28,o),
(232,52,o),
(232,108,cs),
(232,620,ls),
(232,676,o),
(256,700,o),
(320,708,c),
(320,728,l),
(44,728,l),
(44,708,l),
(108,700,o),
(132,676,o),
(132,620,cs),
(132,108,ls),
(132,52,o),
(108,28,o),
(44,20,c),
(44,0,l)
);
}
);
width = 364;
}
);
metricLeft = "=H+4";
metricRight = "=H+4";
unicode = 73;
},
{
color = 4;
glyphname = J;
kernLeft = J;
kernRight = U;
lastChange = "2025-06-06 23:01:06 +0000";
layers = (
{
anchors = (
{
name = top;
pos = (386,800);
}
);
layerId = m01;
shapes = (
{
closed = 1;
nodes = (
(351,-12,o),
(436,61,o),
(436,206,cs),
(436,620,ls),
(436,676,o),
(460,700,o),
(524,708,c),
(524,728,l),
(248,728,l),
(248,708,l),
(312,700,o),
(336,676,o),
(336,620,cs),
(336,182,ls),
(336,81,o),
(290,37,o),
(231,37,cs),
(161,37,o),
(118,86,o),
(94,178,c),
(0,136,l),
(44,33,o),
(109,-12,o),
(211,-12,cs)
);
}
);
width = 548;
}
);
metricRight = "=U";
unicode = 74;
},
{
color = 4;
glyphname = K;
kernLeft = H;
kernRight = K;
lastChange = "2025-05-10 23:08:46 +0000";
layers = (
{
anchors = (
{
name = bottom;
pos = (409,0);
}
);
guides = (
{
angle = 45;
pos = (568,620);
},
{
angle = -54;
pos = (612,108);
},
{
angle = 45;
pos = (502,620);
}
);
layerId = m01;
shapes = (
{
closed = 1;
nodes = (
(306,360,l),
(510,80,ls),
(527,57,o),
(542,32,o),
(542,0,c),
(744,0,l),
(744,20,l),
(680,28,o),
(650,56,o),
(612,108,cs),
(377,431,l)
);
},
{
closed = 1;
nodes = (
(568,620,ls),
(620,672,o),
(656,700,o),
(720,708,c),
(720,728,l),
(488,728,l),
(488,708,l),
(548,702,o),
(556,674,o),
(502,620,cs),
(228,346,l),
(228,620,ls),
(228,676,o),
(252,700,o),
(316,708,c),
(316,728,l),
(40,728,l),
(40,708,l),
(104,700,o),
(128,676,o),
(128,620,cs),
(128,108,ls),
(128,52,o),
(104,28,o),
(40,20,c),
(40,0,l),
(316,0,l),
(316,20,l),
(252,28,o),
(228,52,o),
(228,108,cs),
(228,280,l)
);
}
);
width = 744;
}
);
metricLeft = "=H";
unicode = 75;
},
{
color = 4;
glyphname = L;
kernLeft = H;
kernRight = L;
lastChange = "2025-05-10 23:47:13 +0000";
layers = (
{
anchors = (
{
name = bottom;
pos = (359,0);
},
{
name = top;
pos = (178,800);
}
);
layerId = m01;
shapes = (
{
closed = 1;
nodes = (
(598,0,l),
(632,196,l),
(612,196,l),
(580,92,o),
(532,48,o),
(436,48,cs),
(288,48,ls),
(249,48,o),
(228,69,o),
(228,108,cs),
(228,620,ls),
(228,676,o),
(252,700,o),
(316,708,c),
(316,728,l),
(40,728,l),
(40,708,l),
(104,700,o),
(128,676,o),
(128,620,cs),
(128,108,ls),
(128,52,o),
(104,28,o),
(40,20,c),
(40,0,l)
);
}
);
width = 652;
}
);
metricLeft = "=H";
unicode = 76;
},
{
color = 10;
glyphname = Lslash;
kernLeft = H;
kernRight = L;
lastChange = "2025-05-10 23:08:46 +0000";
layers = (
{
layerId = m01;
shapes = (
{
ref = L;
},
{
closed = 1;
nodes = (
(319,496,l),
(43,337,l),
(43,282,l),
(319,441,l)
);
}
);
width = 652;
}
);
metricLeft = "=H";
metricRight = "=L";
unicode = 321;
},
{
color = 4;
glyphname = M;
kernLeft = M;
kernRight = M;
lastChange = "2025-05-10 23:08:46 +0000";
layers = (
{
guides = (
{
angle = 68;
pos = (721,728);
},
{
angle = -68;
pos = (261,728);
},
{
angle = -68;
pos = (453,-10);
},
{
angle = 68;
pos = (473,-10);
}
);
layerId = m01;
shapes = (
{
closed = 1;
nodes = (
(252,20,l),
(180,28,o),
(160,52,o),
(164,108,cs),
(199,616,l),
(453,-10,l),
(473,-10,l),
(727,616,l),
(762,108,ls),
(766,52,o),
(746,28,o),
(674,20,c),
(674,0,l),
(950,0,l),
(950,20,l),
(894,28,o),
(866,48,o),
(862,108,cs),
(827,620,ls),
(823,676,o),
(843,700,o),
(915,708,c),
(915,728,l),
(721,728,l),
(491,159,l),
(261,728,l),
(63,728,l),
(63,708,l),
(135,700,o),
(155,676,o),
(151,620,cs),
(116,108,ls),
(112,48,o),
(84,28,o),
(28,20,c),
(28,0,l),
(252,0,l)
);
}
);
width = 978;
}
);
unicode = 77;
},
{
color = 4;
glyphname = N;
kernLeft = H;
kernRight = N;
lastChange = "2025-05-10 23:47:13 +0000";
layers = (
{
anchors = (
{
name = bottom;
pos = (405,0);
},
{
name = top;
pos = (405,800);
}
);
guides = (
{
angle = -52;
pos = (210,728);
},
{
angle = -52;
pos = (662,-10);
}
);
layerId = m01;
shapes = (
{
closed = 1;
nodes = (
(682,-10,l),
(682,620,ls),
(682,676,o),
(706,700,o),
(770,708,c),
(770,728,l),
(546,728,l),
(546,708,l),
(610,700,o),
(634,676,o),
(634,620,cs),
(634,185,l),
(210,728,l),
(40,728,l),
(40,708,l),
(104,700,o),
(128,676,o),
(128,620,cs),
(128,108,ls),
(128,52,o),
(104,28,o),
(40,20,c),
(40,0,l),
(264,0,l),
(264,20,l),
(200,28,o),
(176,52,o),
(176,108,cs),
(176,612,l),
(662,-10,l)
);
}
);
width = 786;
}
);
metricLeft = "=H";
unicode = 78;
},
{
color = 10;
glyphname = Eng;
kernLeft = H;
kernRight = N;
lastChange = "2025-05-10 23:08:46 +0000";
layers = (
{
layerId = m01;
shapes = (
{
closed = 1;
nodes = (
(634,-145,o),
(611,-208,o),
(548,-208,cs),
(506,-208,o),
(485,-180,o),
(471,-134,c),
(386,-172,l),
(418,-228,o),
(472,-252,o),
(538,-252,cs),
(616,-252,o),
(682,-210,o),
(682,-50,cs),
(682,620,ls),
(682,676,o),
(706,700,o),
(770,708,c),
(770,728,l),
(546,728,l),
(546,708,l),
(610,700,o),
(634,676,o),
(634,620,cs),
(634,185,l),
(210,728,l),
(40,728,l),
(40,708,l),
(104,700,o),
(128,676,o),
(128,620,cs),
(128,108,ls),
(128,52,o),
(104,28,o),
(40,20,c),
(40,0,l),
(264,0,l),
(264,20,l),
(200,28,o),
(176,52,o),
(176,108,cs),
(176,612,l),
(634,26,l),
(634,-62,ls)
);
}
);
width = 786;
}
);
metricLeft = "=H";
metricRight = "=N";
unicode = 330;
},
{
color = 4;
glyphname = O;
kernLeft = O;
kernRight = O;
lastChange = "2025-06-10 01:26:38 +0000";
layers = (
{
anchors = (
{
name = top;
pos = (428,800);
}
);
layerId = m01;
shapes = (
{
closed = 1;
nodes = (
(213,740,o),
(52,579,o),
(52,364,cs),
(52,149,o),
(213,-12,o),
(428,-12,cs),
(643,-12,o),
(804,149,o),
(804,364,cs),
(804,579,o),
(643,740,o),
(428,740,cs)
);
},
{
closed = 1;
nodes = (
(604,692,o),
(692,508,o),
(692,336,cs),
(692,164,o),
(580,36,o),
(440,36,cs),
(252,36,o),
(164,220,o),
(164,392,cs),
(164,564,o),
(276,692,o),
(416,692,cs)
);
}
);
width = 856;
}
);
unicode = 79;
},
{
color = 10;
glyphname = Oslash;
kernLeft = O;
kernRight = O;
lastChange = "2025-05-10 23:47:13 +0000";
layers = (
{
anchors = (
{
name = top;
pos = (428,800);
}
);
layerId = m01;
shapes = (
{
ref = O;
},
{
closed = 1;
nodes = (
(810,784,l),
(749,784,l),
(46,-56,l),
(107,-56,l)
);
}
);
width = 856;
}
);
unicode = 216;
},
{
color = 10;
glyphname = OE;
kernLeft = O;
kernRight = E;
lastChange = "2025-05-10 23:08:46 +0000";
layers = (
{
layerId = m01;
shapes = (
{
closed = 1;
nodes = (
(1037,0,l),
(1071,196,l),
(1051,196,l),
(1019,92,o),
(971,48,o),
(875,48,cs),
(727,48,ls),
(688,48,o),
(667,69,o),
(667,108,cs),
(667,348,l),
(803,348,ls),
(859,348,o),
(883,324,o),
(891,260,c),
(911,260,l),
(911,484,l),
(891,484,l),
(883,420,o),
(859,396,o),
(803,396,cs),
(667,396,l),
(667,650,ls),
(667,669,o),
(678,680,o),
(697,680,cs),
(862,680,ls),
(958,680,o),
(1006,636,o),
(1038,532,c),
(1058,532,l),
(1024,728,l),
(434,728,ls),
(216,728,o),
(52,577,o),
(52,366,cs),
(52,155,o),
(216,0,o),
(434,0,cs)
);
},
{
closed = 1;
nodes = (
(255,48,o),
(167,225,o),
(167,391,cs),
(167,557,o),
(279,680,o),
(419,680,cs),
(537,680,ls),
(556,680,o),
(567,669,o),
(567,650,cs),
(567,108,ls),
(567,69,o),
(546,48,o),
(507,48,cs),
(443,48,ls)
);
}
);
width = 1107;
}
);
metricLeft = "=O";
metricRight = "=E";
unicode = 338;
},
{
color = 4;
glyphname = P;
kernLeft = H;
kernRight = P;
lastChange = "2025-06-06 09:08:53 +0000";
layers = (
{
layerId = m01;
shapes = (
{
closed = 1;
nodes = (
(128,52,o),
(104,28,o),
(40,20,c),
(40,0,l),
(316,0,l),
(316,20,l),
(252,28,o),
(228,52,o),
(228,108,cs),
(228,312,l),
(338,312,ls),
(518,312,o),
(616,385,o),
(616,524,cs),
(616,658,o),
(518,728,o),
(338,728,cs),
(40,728,l),
(40,708,l),
(104,700,o),
(128,676,o),
(128,620,cs),
(128,108,ls)
);
},
{
closed = 1;
nodes = (
(228,650,ls),
(228,669,o),
(239,680,o),
(258,680,cs),
(314,680,ls),
(436,680,o),
(506,624,o),
(506,516,cs),
(506,413,o),
(436,360,o),
(314,360,cs),
(228,360,l)
);
}
);
width = 648;
}
);
metricLeft = "=H";
unicode = 80;
},
{
color = 10;
glyphname = Thorn;
kernLeft = H;
kernRight = Thorn;
lastChange = "2025-05-10 23:08:46 +0000";
layers = (
{
layerId = m01;
shapes = (
{
closed = 1;
nodes = (
(228,502,ls),
(228,521,o),
(239,532,o),
(258,532,cs),
(314,532,ls),
(436,532,o),
(506,476,o),
(506,368,cs),
(506,265,o),
(436,212,o),
(314,212,cs),
(228,212,l)
);
},
{
closed = 1;
nodes = (
(316,0,l),
(316,20,l),
(252,28,o),
(228,52,o),
(228,108,cs),
(228,164,l),
(338,164,ls),
(518,164,o),
(616,237,o),
(616,376,cs),
(616,510,o),
(518,580,o),
(338,580,cs),
(228,580,l),
(228,620,ls),
(228,676,o),
(252,700,o),
(316,708,c),
(316,728,l),
(40,728,l),
(40,708,l),
(104,700,o),
(128,676,o),
(128,620,cs),
(128,108,ls),
(128,52,o),
(104,28,o),
(40,20,c),
(40,0,l)
);
}
);
width = 652;
}
);
metricLeft = "=H";
unicode = 222;
},
{
color = 4;
glyphname = Q;
kernLeft = O;
kernRight = O;
lastChange = "2025-05-10 23:08:46 +0000";
layers = (
{
layerId = m01;
shapes = (
{
closed = 1;
nodes = (
(756,-50,l),
(737,-74,o),
(713,-85,o),
(669,-85,cs),
(597,-85,o),
(550,14,o),
(434,14,cs),
(366,14,o),
(325,-33,o),
(297,-105,c),
(315,-113,l),
(341,-72,o),
(366,-46,o),
(418,-46,cs),
(490,-46,o),
(540,-161,o),
(649,-161,cs),
(705,-161,o),
(748,-116,o),
(774,-58,c)
);
},
{
ref = O;
}
);
width = 856;
}
);
metricLeft = "=O";
metricRight = "=O";
unicode = 81;
},
{
color = 4;
glyphname = R;
kernLeft = H;
kernRight = R;
lastChange = "2025-05-10 23:47:13 +0000";
layers = (
{
anchors = (
{
name = bottom;
pos = (364,0);
},
{
name = top;
pos = (352,800);
}
);
layerId = m01;
shapes = (
{
closed = 1;
nodes = (
(228,650,ls),
(228,669,o),
(239,680,o),
(258,680,cs),
(316,680,ls),
(439,680,o),
(506,632,o),
(506,531,cs),
(506,437,o),
(439,392,o),
(316,392,cs),
(228,392,l)
);
},
{
closed = 1;
nodes = (
(316,0,l),
(316,20,l),
(252,28,o),
(228,52,o),
(228,108,cs),
(228,344,l),
(259,344,ls),
(302,344,o),
(332,329,o),
(356,294,cs),
(507,80,ls),
(522,58,o),
(538,32,o),
(537,0,c),
(740,0,l),
(740,20,l),
(676,28,o),
(644,58,o),
(608,108,cs),
(438,348,l),
(534,362,o),
(616,429,o),
(616,541,cs),
(616,661,o),
(517,728,o),
(338,728,cs),
(40,728,l),
(40,708,l),
(104,700,o),
(128,676,o),
(128,620,cs),
(128,108,ls),
(128,52,o),
(104,28,o),
(40,20,c),
(40,0,l)
);
}
);
width = 740;
}
);
metricLeft = "=H";
unicode = 82;
},
{
color = 4;
glyphname = S;
kernLeft = S;
kernRight = S;
lastChange = "2025-06-09 22:13:31 +0000";
layers = (
{
anchors = (
{
name = bottom;
pos = (312,0);
},
{
name = top;
pos = (312,800);
}
);
layerId = m01;
shapes = (
{
closed = 1;
nodes = (
(474,-12,o),
(572,70,o),
(572,197,cs),
(572,331,o),
(461,378,o),
(361,418,cs),
(260,457,o),
(168,489,o),
(168,577,cs),
(168,645,o),
(224,692,o),
(301,692,cs),
(392,692,o),
(442,629,o),
(466,552,c),
(556,592,l),
(522,684,o),
(434,740,o),
(313,740,cs),
(171,740,o),
(80,661,o),
(80,541,cs),
(80,403,o),
(204,367,o),
(312,325,cs),
(398,291,o),
(472,253,o),
(472,165,cs),
(472,92,o),
(419,36,o),
(334,36,cs),
(240,36,o),
(180,99,o),
(146,202,c),
(52,160,l),
(98,54,o),
(186,-12,o),
(322,-12,cs)
);
}
);
width = 620;
}
);
unicode = 83;
},
{
glyphname = Germandbls;
kernLeft = H;
kernRight = B;
lastChange = "2025-05-10 23:08:46 +0000";
layers = (
{
layerId = m01;
shapes = (
{
closed = 1;
nodes = (
(296,120,l),
(326,32,o),
(381,-12,o),
(489,-12,cs),
(630,-12,o),
(707,64,o),
(707,202,cs),
(707,341,o),
(629,438,o),
(466,438,c),
(558,457,o),
(618,523,o),
(618,613,cs),
(618,716,o),
(528,792,o),
(389,792,cs),
(219,792,o),
(128,689,o),
(128,504,cs),
(128,108,ls),
(128,52,o),
(104,28,o),
(40,20,c),
(40,0,l),
(228,0,l),
(228,553,ls),
(228,685,o),
(293,744,o),
(373,744,cs),
(445,744,o),
(510,701,o),
(510,613,cs),
(510,524,o),
(439,456,o),
(380,456,cs),
(364,456,l),
(364,408,l),
(379,408,ls),
(514,408,o),
(591,305,o),
(591,196,cs),
(591,94,o),
(554,37,o),
(489,37,cs),
(422,37,o),
(401,95,o),
(388,160,c)
);
}
);
width = 759;
}
);
metricLeft = "=H";
metricRight = "=B";
unicode = 7838;
},
{
color = 4;
glyphname = T;
kernLeft = T;
kernRight = T;
lastChange = "2025-05-10 23:47:13 +0000";
layers = (
{
anchors = (
{
name = bottom;
pos = (356,0);
},
{
name = top;
pos = (356,800);
}
);
layerId = m01;
shapes = (
{
closed = 1;
nodes = (
(306,52,o),
(282,28,o),
(218,20,c),
(218,0,l),
(494,0,l),
(494,20,l),
(430,28,o),
(406,52,o),
(406,108,cs),
(406,650,ls),
(406,669,o),
(417,680,o),
(436,680,cs),
(500,680,ls),
(596,680,o),
(644,636,o),
(676,532,c),
(696,532,l),
(662,728,l),
(50,728,l),
(16,532,l),
(36,532,l),
(68,636,o),
(116,680,o),
(212,680,cs),
(276,680,ls),
(295,680,o),
(306,669,o),
(306,650,cs),
(306,108,ls)
);
}
);
width = 712;
}
);
unicode = 84;
},
{
color = 10;
glyphname = Tbar;
kernLeft = T;
kernRight = T;
lastChange = "2025-05-31 11:12:40 +0000";
layers = (
{
layerId = m01;
shapes = (
{
ref = T;
},
{
closed = 1;
nodes = (
(176,340,l),
(536,340,l),
(536,388,l),
(176,388,l)
);
}
);
width = 712;
}
);
metricLeft = "=T";
metricRight = "=T";
unicode = 358;
},
{
color = 4;
glyphname = U;
kernLeft = U;
kernRight = U;
lastChange = "2025-05-10 23:47:13 +0000";
layers = (
{
anchors = (
{
name = ogonek;
pos = (550,28);
},
{
name = top;
pos = (413,800);
}
);
layerId = m01;
shapes = (
{
closed = 1;
nodes = (
(560,-12,o),
(666,94,o),
(666,262,cs),
(666,620,ls),
(666,676,o),
(690,700,o),
(754,708,c),
(754,728,l),
(530,728,l),
(530,708,l),
(594,700,o),
(618,676,o),
(618,620,cs),
(618,266,ls),
(618,138,o),
(544,48,o),
(424,48,cs),
(288,48,o),
(212,127,o),
(212,266,cs),
(212,620,ls),
(212,676,o),
(236,700,o),
(300,708,c),
(300,728,l),
(24,728,l),
(24,708,l),
(88,700,o),
(112,676,o),
(112,620,cs),
(112,262,ls),
(112,92,o),
(222,-12,o),
(400,-12,cs)
);
}
);
width = 778;
}
);
unicode = 85;
},
{
color = 4;
glyphname = V;
kernLeft = V;
kernRight = V;
lastChange = "2025-06-09 22:28:25 +0000";
layers = (
{
guides = (
{
angle = 66;
pos = (710,620);
},
{
angle = -66;
pos = (128,620);
},
{
angle = -66;
pos = (236,620);
},
{
angle = 66;
pos = (658,620);
}
);
layerId = m01;
shapes = (
{
closed = 1;
nodes = (
(429,-10,l),
(710,620,ls),
(734,674,o),
(770,700,o),
(830,708,c),
(830,728,l),
(610,728,l),
(610,708,l),
(674,700,o),
(686,682,o),
(658,620,cs),
(447,146,l),
(236,620,ls),
(208,682,o),
(220,700,o),
(284,708,c),
(284,728,l),
(8,728,l),
(8,708,l),
(68,700,o),
(104,675,o),
(128,620,cs),
(409,-10,l)
);
}
);
width = 838;
}
);
unicode = 86;
},
{
color = 4;
glyphname = W;
kernLeft = W;
kernRight = W;
lastChange = "2025-06-09 22:28:21 +0000";
layers = (
{
anchors = (
{
name = top;
pos = (551,800);
}
);
guides = (
{
angle = 70;
pos = (940,620);
},
{
angle = 70;
pos = (990,620);
},
{
angle = -70;
pos = (617,620);
},
{
angle = -70;
pos = (126,620);
},
{
angle = -70;
pos = (231,620);
},
{
angle = -70;
pos = (512,620);
}
);
layerId = m01;
shapes = (
{
closed = 1;
nodes = (
(375,-10,l),
(604,620,l),
(554,620,l),
(392,176,l),
(231,620,ls),
(208,682,o),
(220,700,o),
(284,708,c),
(284,728,l),
(8,728,l),
(8,708,l),
(68,700,o),
(106,675,o),
(126,620,cs),
(355,-10,l)
);
},
{
closed = 1;
nodes = (
(761,-10,l),
(990,620,ls),
(1010,675,o),
(1048,700,o),
(1108,708,c),
(1108,728,l),
(887,728,l),
(887,708,l),
(951,700,o),
(963,682,o),
(940,620,cs),
(778,176,l),
(617,620,ls),
(594,682,o),
(606,700,o),
(670,708,c),
(670,728,l),
(394,728,l),
(394,708,l),
(454,700,o),
(492,675,o),
(512,620,cs),
(741,-10,l)
);
}
);
width = 1116;
}
);
metricLeft = "=V";
metricRight = "=V";
unicode = 87;
},
{
color = 4;
glyphname = X;
kernLeft = X;
kernRight = X;
lastChange = "2025-05-10 23:08:46 +0000";
layers = (
{
guides = (
{
angle = -55;
pos = (152,620);
},
{
angle = -55;
pos = (274,620);
}
);
layerId = m01;
shapes = (
{
closed = 1;
nodes = (
(550,50,o),
(544,28,o),
(480,20,c),
(480,0,l),
(764,0,l),
(764,20,l),
(700,28,o),
(666,60,o),
(632,108,cs),
(274,620,ls),
(234,678,o),
(240,700,o),
(304,708,c),
(304,728,l),
(20,728,l),
(20,708,l),
(84,700,o),
(118,668,o),
(152,620,cs),
(510,108,ls)
);
},
{
closed = 1;
nodes = (
(391,317,l),
(616,623,ls),
(650,670,o),
(688,703,o),
(752,711,c),
(752,728,l),
(528,728,l),
(528,708,l),
(592,700,o),
(598,678,o),
(555,620,cs),
(360,357,l)
);
},
{
closed = 1;
nodes = (
(373,411,l),
(148,105,ls),
(114,58,o),
(76,25,o),
(12,17,c),
(12,0,l),
(236,0,l),
(236,20,l),
(172,28,o),
(166,50,o),
(209,108,cs),
(404,371,l)
);
}
);
width = 776;
}
);
unicode = 88;
},
{
color = 4;
glyphname = Y;
kernLeft = Y;
kernRight = Y;
lastChange = "2025-06-09 22:28:13 +0000";
layers = (
{
anchors = (
{
name = top;
pos = (388,800);
}
);
layerId = m01;
shapes = (
{
closed = 1;
nodes = (
(504,0,l),
(504,20,l),
(440,28,o),
(416,52,o),
(416,108,cs),
(416,328,l),
(600,620,ls),
(632,670,o),
(660,700,o),
(724,708,c),
(724,728,l),
(510,728,l),
(510,708,l),
(574,700,o),
(580,678,o),
(545,620,cs),
(397,387,l),
(249,620,ls),
(214,678,o),
(220,700,o),
(284,708,c),
(284,728,l),
(8,728,l),
(8,708,l),
(72,700,o),
(100,670,o),
(132,620,cs),
(316,328,l),
(316,108,ls),
(316,52,o),
(292,28,o),
(228,20,c),
(228,0,l)
);
}
);
width = 732;
}
);
unicode = 89;
},
{
color = 4;
glyphname = Z;
kernLeft = Z;
kernRight = Z;
lastChange = "2025-05-10 23:47:13 +0000";
layers = (
{
anchors = (
{
name = top;
pos = (336,800);
}
);
guides = (
{
angle = 56;
pos = (32,19);
}
);
layerId = m01;
shapes = (
{
closed = 1;
nodes = (
(590,0,l),
(624,196,l),
(604,196,l),
(572,92,o),
(524,48,o),
(428,48,cs),
(169,48,l),
(616,708,l),
(616,728,l),
(90,728,l),
(56,532,l),
(76,532,l),
(108,636,o),
(156,680,o),
(252,680,cs),
(479,680,l),
(32,20,l),
(32,0,l)
);
}
);
width = 656;
}
);
unicode = 90;
},
{
color = 5;
glyphname = M.ss01;
kernLeft = H;
kernRight = H;
lastChange = "2025-05-10 23:08:46 +0000";
layers = (
{
guides = (
{
angle = 66;
pos = (474,-10);
},
{
angle = -66;
pos = (454,-10);
}
);
layerId = m01;
shapes = (
{
closed = 1;
nodes = (
(940,0,l),
(940,20,l),
(876,28,o),
(852,52,o),
(852,108,cs),
(852,620,ls),
(852,676,o),
(876,700,o),
(940,708,c),
(940,728,l),
(751,728,l),
(492,146,l),
(232,728,l),
(40,728,l),
(40,708,l),
(104,700,o),
(128,676,o),
(128,620,cs),
(128,108,ls),
(128,52,o),
(104,28,o),
(40,20,c),
(40,0,l),
(264,0,l),
(264,20,l),
(200,28,o),
(176,52,o),
(176,108,cs),
(176,614,l),
(454,-10,l),
(474,-10,l),
(752,614,l),
(752,108,ls),
(752,52,o),
(728,28,o),
(664,20,c),
(664,0,l)
);
}
);
width = 980;
}
);
metricLeft = "=H";
metricRight = "=H";
},
{
color = 4;
glyphname = a;
kernLeft = a;
kernRight = a;
lastChange = "2025-06-10 00:09:55 +0000";
layers = (
{
anchors = (
{
name = ogonek;
pos = (546,12);
},
{
name = top;
pos = (270,600);
}
);
guides = (
{
angle = -55;
pos = (576,36);
}
);
layerId = m01;
shapes = (
{
closed = 1;
nodes = (
(379,328,l),
(335,321,ls),
(167,294,o),
(52,240,o),
(52,128,cs),
(52,56,o),
(102,-12,o),
(198,-12,cs),
(293,-12,o),
(355,34,o),
(387,94,c),
(388,80,ls),
(392,20,o),
(424,-12,o),
(472,-12,cs),
(500,-12,o),
(540,0,o),
(576,36,c),
(565,52,l),
(547,42,o),
(535,38,o),
(523,38,cs),
(497,38,o),
(481,62,o),
(478,109,cs),
(464,314,ls),
(456,428,o),
(428,516,o),
(268,516,cs),
(134,516,o),
(38,429,o),
(74,326,c),
(157,363,l),
(141,419,o),
(186,472,o),
(258,472,cs),
(331,472,o),
(365,418,o),
(370,338,cs),
(378,219,ls),
(387,84,o),
(278,56,o),
(234,56,cs),
(187,56,o),
(150,85,o),
(150,144,cs),
(150,223,o),
(219,255,o),
(347,279,cs),
(379,285,l)
);
}
);
width = 564;
}
);
unicode = 97;
},
{
color = 10;
glyphname = ae;
kernLeft = a;
kernRight = e;
lastChange = "2025-05-10 23:21:10 +0000";
layers = (
{
anchors = (
{
name = top;
pos = (450,600);
}
);
layerId = m01;
shapes = (
{
closed = 1;
nodes = (
(315,-12,o),
(383,42,o),
(413,102,c),
(464,21,o),
(548,-12,o),
(624,-12,cs),
(736,-12,o),
(806,56,o),
(838,132,c),
(820,140,l),
(779,84,o),
(716,56,o),
(656,56,cs),
(520,56,o),
(472,168,o),
(472,272,cs),
(472,396,o),
(539,472,o),
(623,472,cs),
(691,472,o),
(740,422,o),
(744,320,c),
(432,320,l),
(432,276,l),
(838,276,l),
(850,444,o),
(748,516,o),
(636,516,cs),
(556,516,o),
(487,485,o),
(439,432,c),
(412,483,o),
(365,516,o),
(272,516,cs),
(138,516,o),
(38,429,o),
(74,326,c),
(159,356,l),
(138,414,o),
(187,472,o),
(262,472,cs),
(335,472,o),
(376,411,o),
(376,338,cs),
(376,198,ls),
(376,86,o),
(298,56,o),
(242,56,cs),
(195,56,o),
(150,85,o),
(150,144,cs),
(150,225,o),
(218,276,o),
(347,276,cs),
(416,276,l),
(416,319,l),
(335,319,ls),
(167,319,o),
(52,239,o),
(52,128,cs),
(52,33,o),
(139,-12,o),
(219,-12,cs)
);
}
);
width = 875;
}
);
metricLeft = "=a";
metricRight = "=e";
unicode = 230;
},
{
color = 4;
glyphname = b;
kernLeft = b;
kernRight = o;
lastChange = "2025-06-08 05:08:03 +0000";
layers = (
{
layerId = m01;
shapes = (
{
closed = 1;
nodes = (
(84,-4,l),
(104,-12,l),
(152,36,l),
(208,0,o),
(264,-12,o),
(316,-12,cs),
(452,-12,o),
(574,74,o),
(574,278,cs),
(574,406,o),
(496,516,o),
(360,516,cs),
(256,516,o),
(196,462,o),
(148,398,c),
(148,355,l),
(188,403,o),
(252,452,o),
(320,452,cs),
(400,452,o),
(475,388,o),
(475,252,cs),
(475,100,o),
(402,34,o),
(320,34,cs),
(252,34,o),
(176,78,o),
(176,176,cs),
(176,772,l),
(156,784,l),
(4,748,l),
(4,728,l),
(24,728,ls),
(64,728,o),
(84,708,o),
(84,668,cs)
);
}
);
width = 622;
}
);
metricRight = "=o+4";
unicode = 98;
},
{
color = 4;
glyphname = c;
kernLeft = o;
kernRight = c;
lastChange = "2025-06-10 00:09:44 +0000";
layers = (
{
anchors = (
{
name = bottom;
pos = (296,0);
},
{
name = top;
pos = (296,600);
}
);
layerId = m01;
shapes = (
{
closed = 1;
nodes = (
(408,-12,o),
(478,56,o),
(510,132,c),
(492,140,l),
(451,84,o),
(388,56,o),
(328,56,cs),
(232,56,o),
(144,126,o),
(144,272,cs),
(144,396,o),
(211,472,o),
(295,472,cs),
(368,472,o),
(401,418,o),
(413,350,c),
(498,388,l),
(474,464,o),
(404,516,o),
(308,516,cs),
(156,516,o),
(44,403,o),
(44,252,cs),
(44,92,o),
(160,-12,o),
(296,-12,cs)
);
}
);
width = 538;
}
);
metricLeft = "=o";
unicode = 99;
},
{
color = 4;
glyphname = d;
kernLeft = o;
kernRight = l;
lastChange = "2025-06-07 06:04:41 +0000";
layers = (
{
anchors = (
{
name = topright;
pos = (594,676);
}
);
layerId = m01;
shapes = (
{
closed = 1;
nodes = (
(446,450,l),
(470,468,l),
(414,504,o),
(358,516,o),
(306,516,cs),
(170,516,o),
(48,430,o),
(48,226,cs),
(48,98,o),
(126,-12,o),
(262,-12,cs),
(366,-12,o),
(426,42,o),
(474,106,c),
(474,149,l),
(434,101,o),
(370,52,o),
(302,52,cs),
(222,52,o),
(147,116,o),
(147,252,cs),
(147,404,o),
(220,470,o),
(302,470,cs),
(370,470,o),
(446,426,o),
(446,328,cs),
(446,0,l),
(466,-12,l),
(610,20,l),
(610,40,l),
(598,40,ls),
(558,40,o),
(538,60,o),
(538,100,cs),
(538,772,l),
(518,784,l),
(366,748,l),
(366,728,l),
(386,728,ls),
(426,728,o),
(446,708,o),
(446,668,cs)
);
}
);
width = 638;
}
);
metricLeft = "=o+4";
metricRight = "=l";
unicode = 100;
},
{
color = 10;
glyphname = dcroat;
kernLeft = o;
kernRight = l;
lastChange = "2025-05-10 23:08:46 +0000";
layers = (
{
layerId = m01;
shapes = (
{
ref = d;
},
{
closed = 1;
nodes = (
(606,640,l),
(286,640,l),
(286,596,l),
(606,596,l)
);
}
);
width = 638;
}
);
metricLeft = "=o+4";
metricRight = "=l";
unicode = 273;
},
{
color = 10;
glyphname = eth;
kernLeft = o;
kernRight = eth;
lastChange = "2025-05-10 23:08:46 +0000";
layers = (
{
layerId = m01;
shapes = (
{
closed = 1;
nodes = (
(464,-12,o),
(536,114,o),
(540,262,cs),
(543,415,o),
(488,572,o),
(352,665,cs),
(296,703,o),
(227,726,o),
(150,740,c),
(142,722,l),
(210,699,o),
(266,670,o),
(310,630,cs),
(379,568,o),
(407,504,o),
(427,412,c),
(397,466,o),
(334,484,o),
(292,484,cs),
(149,484,o),
(44,379,o),
(44,236,cs),
(44,93,o),
(149,-12,o),
(292,-12,cs)
);
},
{
closed = 1;
nodes = (
(195,32,o),
(144,146,o),
(144,255,cs),
(144,362,o),
(195,440,o),
(283,440,cs),
(389,440,o),
(440,325,o),
(440,217,cs),
(440,110,o),
(389,32,o),
(301,32,cs)
);
},
{
closed = 1;
nodes = (
(467,711,l),
(446,748,l),
(155,577,l),
(176,540,l)
);
}
);
width = 584;
}
);
metricLeft = "=o";
unicode = 240;
},
{
color = 4;
glyphname = e;
kernLeft = o;
kernRight = e;
lastChange = "2025-06-09 22:56:44 +0000";
layers = (
{
anchors = (
{
name = ogonek;
pos = (410,16);
},
{
name = top;
pos = (296,600);
}
);
layerId = m01;
shapes = (
{
closed = 1;
nodes = (
(510,276,l),
(522,444,o),
(420,516,o),
(308,516,cs),
(156,516,o),
(44,404,o),
(44,252,cs),
(44,92,o),
(160,-12,o),
(296,-12,cs),
(408,-12,o),
(478,56,o),
(510,132,c),
(492,140,l),
(451,84,o),
(388,56,o),
(328,56,cs),
(232,56,o),
(144,126,o),
(144,272,cs),
(144,396,o),
(211,472,o),
(295,472,cs),
(363,472,o),
(412,422,o),
(416,320,c),
(118,320,l),
(118,276,l)
);
}
);
width = 547;
}
);
metricLeft = "=o";
unicode = 101;
},
{
color = 4;
glyphname = f;
kernLeft = f;
kernRight = f;
lastChange = "2025-06-07 06:50:19 +0000";
layers = (
{
layerId = m01;
shapes = (
{
closed = 1;
nodes = (
(124,48,o),
(100,28,o),
(52,20,c),
(52,0,l),
(312,0,l),
(312,20,l),
(242,28,o),
(216,48,o),
(216,92,cs),
(216,460,l),
(368,460,l),
(368,504,l),
(216,504,l),
(216,594,ls),
(216,677,o),
(239,740,o),
(302,740,cs),
(344,740,o),
(365,712,o),
(379,666,c),
(464,704,l),
(432,760,o),
(378,784,o),
(312,784,cs),
(228,784,o),
(124,742,o),
(124,574,cs),
(124,504,l),
(28,504,l),
(28,460,l),
(124,460,l),
(124,92,ls)
);
}
);
width = 368;
}
);
unicode = 102;
},
{
color = 4;
glyphname = g;
kernLeft = g;
kernRight = g;
lastChange = "2025-06-08 04:44:37 +0000";
layers = (
{
anchors = (
{
name = top;
pos = (280,600);
}
);
layerId = m01;
shapes = (
{
closed = 1;
nodes = (
(393,145,o),
(488,223,o),
(488,332,cs),
(488,384,o),
(472,426,o),
(438,460,c),
(528,460,l),
(528,504,l),
(508,516,l),
(394,491,l),
(356,509,o),
(318,516,o),
(280,516,cs),
(160,516,o),
(72,441,o),
(72,332,cs),
(72,258,o),
(117,199,o),
(179,169,c),
(119,162,o),
(79,120,o),
(79,81,cs),
(79,35,o),
(117,12,o),
(161,0,c),
(87,-22,o),
(24,-80,o),
(24,-134,cs),
(24,-222,o),
(117,-252,o),
(237,-252,cs),
(358,-252,o),
(544,-189,o),
(544,-65,cs),
(544,51,o),
(442,61,o),
(314,68,cs),
(236,72,o),
(159,74,o),
(159,110,cs),
(159,139,o),
(224,149,o),
(280,148,cs)
);
},
{
closed = 1;
nodes = (
(347,472,o),
(392,396,o),
(392,317,cs),
(392,239,o),
(347,192,o),
(286,192,cs),
(213,192,o),
(168,267,o),
(168,345,cs),
(168,424,o),
(213,472,o),
(274,472,cs)
);
},
{
closed = 1;
nodes = (
(100,-63,o),
(175,-22,o),
(211,-9,c),
(234,-11,o),
(240,-11,o),
(266,-12,cs),
(358,-15,o),
(464,-12,o),
(464,-86,cs),
(464,-160,o),
(341,-204,o),
(249,-204,cs),
(163,-204,o),
(100,-172,o),
(100,-112,cs)
);
}
);
width = 564;
}
);
unicode = 103;
},
{
color = 4;
glyphname = h;
kernLeft = h;
kernRight = n;
lastChange = "2025-06-07 06:22:16 +0000";
layers = (
{
anchors = (
{
name = top;
pos = (154,812);
}
);
layerId = m01;
shapes = (
{
closed = 1;
nodes = (
(172,354,l),
(212,406,o),
(282,452,o),
(342,452,cs),
(412,452,o),
(464,402,o),
(464,282,cs),
(464,92,ls),
(464,48,o),
(440,28,o),
(392,20,c),
(392,0,l),
(628,0,l),
(628,20,l),
(580,28,o),
(556,48,o),
(556,92,cs),
(556,306,ls),
(556,442,o),
(506,516,o),
(374,516,cs),
(306,516,o),
(231,481,o),
(172,398,c)
);
},
{
closed = 1;
nodes = (
(108,48,o),
(84,28,o),
(36,20,c),
(36,0,l),
(272,0,l),
(272,20,l),
(224,28,o),
(200,48,o),
(200,92,cs),
(200,772,l),
(180,784,l),
(28,748,l),
(28,728,l),
(48,728,ls),
(88,728,o),
(108,708,o),
(108,668,cs),
(108,92,ls)
);
}
);
width = 652;
}
);
metricRight = "=n";
unicode = 104;
},
{
color = 10;
glyphname = hbar;
kernLeft = h;
kernRight = n;
lastChange = "2025-05-10 23:08:46 +0000";
layers = (
{
layerId = m01;
shapes = (
{
ref = h;
},
{
closed = 1;
nodes = (
(348,640,l),
(28,640,l),
(28,596,l),
(348,596,l)
);
}
);
width = 652;
}
);
unicode = 295;
},
{
color = 10;
glyphname = idotless;
kernLeft = i;
kernRight = i;
lastChange = "2025-05-10 23:21:10 +0000";
layers = (
{
anchors = (
{
name = ogonek;
pos = (268,0);
},
{
name = top;
pos = (150,600);
}
);
layerId = m01;
shapes = (
{
closed = 1;
nodes = (
(268,0,l),
(268,20,l),
(220,28,o),
(196,48,o),
(196,92,cs),
(196,504,l),
(176,516,l),
(32,480,l),
(32,460,l),
(44,460,ls),
(84,460,o),
(104,440,o),
(104,400,cs),
(104,92,ls),
(104,48,o),
(80,28,o),
(32,20,c),
(32,0,l)
);
}
);
width = 296;
}
);
unicode = 305;
},
{
color = 10;
glyphname = jdotless;
kernLeft = j;
kernRight = j;
lastChange = "2025-05-10 23:21:10 +0000";
layers = (
{
anchors = (
{
name = top;
pos = (150,600);
}
);
layerId = m01;
shapes = (
{
closed = 1;
nodes = (
(104,-145,o),
(81,-208,o),
(18,-208,cs),
(-24,-208,o),
(-45,-180,o),
(-59,-134,c),
(-144,-172,l),
(-112,-228,o),
(-58,-252,o),
(8,-252,cs),
(92,-252,o),
(196,-210,o),
(196,-42,cs),
(196,504,l),
(176,516,l),
(32,480,l),
(32,460,l),
(44,460,ls),
(84,460,o),
(104,440,o),
(104,400,cs),
(104,-62,ls)
);
}
);
width = 288;
}
);
unicode = 567;
},
{
color = 4;
glyphname = k;
kernLeft = h;
kernRight = k;
lastChange = "2025-06-11 16:09:08 +0000";
layers = (
{
anchors = (
{
name = bottom;
pos = (321,0);
}
);
layerId = m01;
shapes = (
{
closed = 1;
nodes = (
(200,772,l),
(180,784,l),
(28,748,l),
(28,728,l),
(48,728,ls),
(88,728,o),
(108,708,o),
(108,668,cs),
(108,92,ls),
(108,52,o),
(88,28,o),
(36,20,c),
(36,0,l),
(272,0,l),
(272,20,l),
(220,28,o),
(200,52,o),
(200,92,c)
);
},
{
closed = 1;
nodes = (
(192,225,l),
(192,164,l),
(438,412,ls),
(482,456,o),
(510,476,o),
(558,484,c),
(558,504,l),
(360,504,l),
(360,484,l),
(412,478,o),
(420,456,o),
(377,412,c)
);
},
{
closed = 1;
nodes = (
(250,238,l),
(384,53,ls),
(390,45,o),
(404,24,o),
(404,0,c),
(574,0,l),
(574,20,l),
(522,28,o),
(498,48,o),
(466,92,cs),
(314,302,l)
);
}
);
width = 574;
}
);
metricLeft = "=h";
unicode = 107;
},
{
color = 4;
glyphname = l;
kernLeft = h;
kernRight = l;
lastChange = "2025-06-02 14:17:56 +0000";
layers = (
{
anchors = (
{
name = bottom;
pos = (154,0);
},
{
name = top;
pos = (154,812);
}
);
layerId = m01;
shapes = (
{
closed = 1;
nodes = (
(108,48,o),
(84,28,o),
(36,20,c),
(36,0,l),
(272,0,l),
(272,20,l),
(224,28,o),
(200,48,o),
(200,92,cs),
(200,772,l),
(180,784,l),
(28,748,l),
(28,728,l),
(48,728,ls),
(88,728,o),
(108,708,o),
(108,668,cs),
(108,92,ls)
);
}
);
width = 300;
}
);
metricLeft = "=h";
unicode = 108;
},
{
color = 10;
glyphname = lslash;
kernLeft = h;
kernRight = l;
lastChange = "2025-05-10 23:08:46 +0000";
layers = (
{
layerId = m01;
shapes = (
{
ref = l;
},
{
closed = 1;
nodes = (
(286,488,l),
(18,333,l),
(18,282,l),
(286,437,l)
);
}
);
width = 300;
}
);
unicode = 322;
},
{
color = 4;
glyphname = m;
kernLeft = n;
kernRight = n;
lastChange = "2025-06-10 01:25:55 +0000";
layers = (
{
layerId = m01;
shapes = (
{
closed = 1;
nodes = (
(168,346,l),
(208,398,o),
(274,452,o),
(334,452,cs),
(402,452,o),
(444,417,o),
(444,298,cs),
(444,92,ls),
(444,48,o),
(420,28,o),
(372,20,c),
(372,0,l),
(608,0,l),
(608,20,l),
(560,28,o),
(536,48,o),
(536,92,cs),
(536,322,ls),
(536,447,o),
(494,516,o),
(366,516,cs),
(294,516,o),
(224,474,o),
(168,390,c)
);
},
{
closed = 1;
nodes = (
(508,341,l),
(544,391,o),
(614,452,o),
(674,452,cs),
(742,452,o),
(784,417,o),
(784,298,cs),
(784,92,ls),
(784,48,o),
(760,28,o),
(712,20,c),
(712,0,l),
(948,0,l),
(948,20,l),
(900,28,o),
(876,48,o),
(876,92,cs),
(876,322,ls),
(876,447,o),
(834,516,o),
(706,516,cs),
(634,516,o),
(571,479,o),
(508,395,c)
);
},
{
closed = 1;
nodes = (
(104,48,o),
(80,28,o),
(32,20,c),
(32,0,l),
(268,0,l),
(268,20,l),
(220,28,o),
(196,48,o),
(196,92,cs),
(196,504,l),
(176,516,l),
(32,480,l),
(32,460,l),
(44,460,ls),
(84,460,o),
(104,440,o),
(104,400,cs),
(104,92,ls)
);
}
);
width = 972;
}
);
metricLeft = "=n";
metricRight = "=n";
unicode = 109;
},
{
color = 4;
glyphname = n;
kernLeft = n;
kernRight = n;
lastChange = "2025-06-08 04:56:37 +0000";
layers = (
{
anchors = (
{
name = bottom;
pos = (328,0);
},
{
name = top;
pos = (328,600);
}
);
layerId = m01;
shapes = (
{
closed = 1;
nodes = (
(168,354,l),
(208,406,o),
(278,452,o),
(338,452,cs),
(408,452,o),
(460,410,o),
(460,290,cs),
(460,92,ls),
(460,48,o),
(436,28,o),
(388,20,c),
(388,0,l),
(624,0,l),
(624,20,l),
(576,28,o),
(552,48,o),
(552,92,cs),
(552,314,ls),
(552,442,o),
(502,516,o),
(370,516,cs),
(302,516,o),
(227,481,o),
(168,398,c)
);
},
{
closed = 1;
nodes = (
(104,48,o),
(80,28,o),
(32,20,c),
(32,0,l),
(268,0,l),
(268,20,l),
(220,28,o),
(196,48,o),
(196,92,cs),
(196,504,l),
(176,516,l),
(32,480,l),
(32,460,l),
(44,460,ls),
(84,460,o),
(104,440,o),
(104,400,cs),
(104,92,ls)
);
}
);
width = 648;
}
);
unicode = 110;
},
{
color = 10;
glyphname = eng;
kernLeft = n;
kernRight = j;
lastChange = "2025-05-10 23:11:53 +0000";
layers = (
{
guides = (
{
angle = 24;
pos = (216,-172);
}
);
layerId = m01;
shapes = (
{
closed = 1;
nodes = (
(168,354,l),
(208,406,o),
(278,452,o),
(338,452,cs),
(408,452,o),
(460,410,o),
(460,290,cs),
(460,-62,ls),
(460,-145,o),
(437,-208,o),
(374,-208,cs),
(332,-208,o),
(311,-180,o),
(297,-134,c),
(212,-172,l),
(244,-228,o),
(298,-252,o),
(364,-252,cs),
(448,-252,o),
(552,-210,o),
(552,-42,cs),
(552,314,ls),
(552,442,o),
(502,516,o),
(370,516,cs),
(302,516,o),
(227,481,o),
(168,398,c)
);
},
{
closed = 1;
nodes = (
(104,48,o),
(80,28,o),
(32,20,c),
(32,0,l),
(268,0,l),
(268,20,l),
(220,28,o),
(196,48,o),
(196,92,cs),
(196,504,l),
(176,516,l),
(32,480,l),
(32,460,l),
(44,460,ls),
(84,460,o),
(104,440,o),
(104,400,cs),
(104,92,ls)
);
}
);
width = 644;
}
);
metricLeft = "=n";
metricRight = "=jdotless";
unicode = 331;
},
{
color = 4;
glyphname = o;
kernLeft = o;
kernRight = o;
lastChange = "2025-06-10 08:28:26 +0000";
layers = (
{
anchors = (
{
name = top;
pos = (308,600);
}
);
layerId = m01;
shapes = (
{
closed = 1;
nodes = (
(156,516,o),
(44,404,o),
(44,252,cs),
(44,100,o),
(156,-12,o),
(308,-12,cs),
(460,-12,o),
(572,100,o),
(572,252,cs),
(572,404,o),
(460,516,o),
(308,516,cs)
);
},
{
closed = 1;
nodes = (
(414,472,o),
(472,348,o),
(472,232,cs),
(472,116,o),
(414,32,o),
(318,32,cs),
(202,32,o),
(144,155,o),
(144,272,cs),
(144,388,o),
(202,472,o),
(298,472,cs)
);
}
);
width = 616;
}
);
unicode = 111;
},
{
color = 10;
glyphname = oslash;
kernLeft = o;
kernRight = o;
lastChange = "2025-05-10 23:21:10 +0000";
layers = (
{
anchors = (
{
name = top;
pos = (300,600);
}
);
layerId = m01;
shapes = (
{
ref = o;
},
{
closed = 1;
nodes = (
(594,560,l),
(538,560,l),
(22,-56,l),
(78,-56,l)
);
}
);
width = 616;
}
);
unicode = 248;
},
{
color = 10;
glyphname = oe;
kernLeft = o;
kernRight = e;
lastChange = "2025-05-10 23:08:46 +0000";
layers = (
{
layerId = m01;
shapes = (
{
closed = 1;
nodes = (
(156,516,o),
(44,404,o),
(44,252,cs),
(44,100,o),
(156,-12,o),
(308,-12,cs),
(460,-12,o),
(572,100,o),
(572,252,cs),
(572,404,o),
(460,516,o),
(308,516,cs)
);
},
{
closed = 1;
nodes = (
(414,472,o),
(472,348,o),
(472,232,cs),
(472,116,o),
(414,32,o),
(318,32,cs),
(202,32,o),
(144,155,o),
(144,272,cs),
(144,388,o),
(202,472,o),
(298,472,cs)
);
},
{
closed = 1;
nodes = (
(938,276,l),
(950,444,o),
(848,516,o),
(736,516,cs),
(584,516,o),
(472,404,o),
(472,252,cs),
(472,92,o),
(588,-12,o),
(724,-12,cs),
(836,-12,o),
(906,56,o),
(938,132,c),
(920,140,l),
(879,84,o),
(816,56,o),
(756,56,cs),
(660,56,o),
(572,126,o),
(572,272,cs),
(572,396,o),
(639,472,o),
(723,472,cs),
(791,472,o),
(840,422,o),
(844,320,c),
(546,320,l),
(546,276,l)
);
}
);
width = 975;
}
);
metricLeft = "=o";
metricRight = "=e";
unicode = 339;
},
{
color = 4;
glyphname = p;
kernLeft = p;
kernRight = o;
lastChange = "2025-06-10 07:59:56 +0000";
layers = (
{
layerId = m01;
shapes = (
{
closed = 1;
nodes = (
(96,-192,o),
(72,-212,o),
(24,-220,c),
(24,-240,l),
(260,-240,l),
(260,-220,l),
(212,-212,o),
(188,-192,o),
(188,-148,cs),
(187,51,l),
(164,36,l),
(220,0,o),
(276,-12,o),
(328,-12,cs),
(464,-12,o),
(586,74,o),
(586,278,cs),
(586,406,o),
(508,516,o),
(372,516,cs),
(268,516,o),
(208,462,o),
(160,398,c),
(160,355,l),
(200,403,o),
(264,452,o),
(332,452,cs),
(412,452,o),
(487,388,o),
(487,252,cs),
(487,100,o),
(414,34,o),
(332,34,cs),
(264,34,o),
(188,78,o),
(188,176,cs),
(188,504,l),
(168,516,l),
(24,480,l),
(24,460,l),
(36,460,ls),
(76,460,o),
(96,440,o),
(96,400,cs),
(96,-148,ls)
);
}
);
width = 634;
}
);
metricRight = "=o+4";
unicode = 112;
},
{
color = 10;
glyphname = thorn;
kernLeft = h;
kernRight = o;
lastChange = "2025-05-10 23:50:55 +0000";
layers = (
{
layerId = m01;
shapes = (
{
closed = 1;
nodes = (
(100,-192,o),
(76,-212,o),
(28,-220,c),
(28,-240,l),
(264,-240,l),
(264,-220,l),
(216,-212,o),
(192,-192,o),
(192,-148,cs),
(191,51,l),
(168,36,l),
(224,0,o),
(280,-12,o),
(332,-12,cs),
(468,-12,o),
(590,74,o),
(590,278,cs),
(590,406,o),
(512,516,o),
(376,516,cs),
(272,516,o),
(212,462,o),
(164,398,c),
(164,355,l),
(204,403,o),
(268,452,o),
(336,452,cs),
(416,452,o),
(491,388,o),
(491,252,cs),
(491,100,o),
(418,34,o),
(336,34,cs),
(268,34,o),
(192,78,o),
(192,176,cs),
(192,772,l),
(172,784,l),
(20,748,l),
(20,728,l),
(40,728,ls),
(80,728,o),
(100,708,o),
(100,668,cs),
(100,-148,ls)
);
}
);
width = 638;
}
);
metricLeft = "=p-4";
metricRight = "=p";
unicode = 254;
},
{
color = 4;
glyphname = q;
kernLeft = o;
kernRight = q;
lastChange = "2025-06-06 07:31:09 +0000";
layers = (
{
layerId = m01;
shapes = (
{
closed = 1;
nodes = (
(446,-192,o),
(422,-212,o),
(374,-220,c),
(374,-240,l),
(610,-240,l),
(610,-220,l),
(562,-212,o),
(538,-192,o),
(538,-148,cs),
(538,508,l),
(518,516,l),
(470,468,l),
(414,504,o),
(358,516,o),
(306,516,cs),
(170,516,o),
(48,430,o),
(48,226,cs),
(48,99,o),
(126,-12,o),
(262,-12,cs),
(366,-12,o),
(426,42,o),
(474,106,c),
(474,149,l),
(434,101,o),
(370,52,o),
(302,52,cs),
(222,52,o),
(147,116,o),
(147,252,cs),
(147,404,o),
(220,470,o),
(302,470,cs),
(370,470,o),
(446,426,o),
(446,328,cs),
(446,-148,ls)
);
}
);
width = 618;
}
);
metricLeft = "=o+4";
unicode = 113;
},
{
color = 4;
glyphname = r;
kernLeft = n;
kernRight = r;
lastChange = "2025-06-10 07:59:52 +0000";
layers = (
{
anchors = (
{
name = bottom;
pos = (150,0);
},
{
name = top;
pos = (228,600);
}
);
layerId = m01;
shapes = (
{
closed = 1;
nodes = (
(292,0,l),
(292,20,l),
(222,28,o),
(196,48,o),
(196,92,cs),
(196,504,l),
(176,516,l),
(32,480,l),
(32,460,l),
(44,460,ls),
(84,460,o),
(104,440,o),
(104,400,cs),
(104,92,ls),
(104,48,o),
(80,28,o),
(32,20,c),
(32,0,l)
);
},
{
closed = 1;
nodes = (
(206,388,o),
(256,432,o),
(320,432,cs),
(342,432,o),
(362,427,o),
(392,416,c),
(408,506,l),
(390,513,o),
(369,516,o),
(354,516,cs),
(270,516,o),
(200,446,o),
(168,350,c),
(168,312,l)
);
}
);
width = 424;
}
);
metricLeft = "=n";
unicode = 114;
},
{
color = 4;
glyphname = s;
kernLeft = s;
kernRight = s;
lastChange = "2025-06-10 08:28:08 +0000";
layers = (
{
anchors = (
{
name = bottom;
pos = (252,0);
},
{
name = top;
pos = (248,600);
}
);
layerId = m01;
shapes = (
{
closed = 1;
nodes = (
(380,-12,o),
(438,55,o),
(438,140,cs),
(438,214,o),
(393,265,o),
(276,298,cs),
(165,329,o),
(144,369,o),
(144,402,cs),
(144,452,o),
(190,472,o),
(234,472,cs),
(276,472,o),
(320,453,o),
(340,388,c),
(422,424,l),
(384,493,o),
(312,516,o),
(245,516,cs),
(146,516,o),
(68,466,o),
(68,373,cs),
(68,295,o),
(122,252,o),
(238,213,cs),
(336,181,o),
(358,156,o),
(358,118,cs),
(358,58,o),
(306,32,o),
(256,32,cs),
(195,32,o),
(157,70,o),
(133,146,c),
(48,108,l),
(88,27,o),
(150,-12,o),
(250,-12,cs)
);
}
);
width = 482;
}
);
unicode = 115;
},
{
color = 10;
glyphname = germandbls;
kernLeft = f;
kernRight = B;
lastChange = "2025-05-10 23:25:59 +0000";
layers = (
{
layerId = m01;
shapes = (
{
closed = 1;
nodes = (
(604,374,o),
(483,431,o),
(378,442,c),
(469,470,o),
(516,545,o),
(516,626,cs),
(516,735,o),
(424,792,o),
(318,792,cs),
(250,792,o),
(196,766,o),
(159,727,cs),
(111,676,o),
(100,609,o),
(100,474,cs),
(100,92,ls),
(100,48,o),
(76,28,o),
(28,20,c),
(28,0,l),
(192,0,l),
(192,553,ls),
(192,685,o),
(230,748,o),
(310,748,cs),
(375,748,o),
(430,709,o),
(430,626,cs),
(430,532,o),
(359,462,o),
(300,462,cs),
(284,462,l),
(284,418,l),
(299,418,ls),
(374,418,o),
(503,357,o),
(503,206,cs),
(503,111,o),
(466,32,o),
(404,32,cs),
(368,32,o),
(347,59,o),
(333,105,c),
(248,68,l),
(280,12,o),
(334,-12,o),
(393,-12,cs),
(484,-12,o),
(604,47,o),
(604,209,cs)
);
}
);
width = 656;
}
);
metricLeft = "=f";
metricRight = "=B";
unicode = 223;
},
{
color = 4;
glyphname = t;
kernLeft = t;
kernRight = t;
lastChange = "2025-06-09 23:21:01 +0000";
layers = (
{
anchors = (
{
name = bottom;
pos = (200,0);
},
{
name = topright;
pos = (244,584);
}
);
guides = (
{
angle = -60;
pos = (336,52);
}
);
layerId = m01;
shapes = (
{
closed = 1;
nodes = (
(88,120,ls),
(88,29,o),
(137,-12,o),
(198,-12,cs),
(250,-12,o),
(296,12,o),
(336,52,c),
(326,69,l),
(290,49,o),
(268,44,o),
(244,44,cs),
(204,44,o),
(180,72,o),
(180,136,cs),
(180,460,l),
(320,460,l),
(320,504,l),
(180,504,l),
(180,602,l),
(160,610,l),
(16,480,l),
(16,460,l),
(88,460,l)
);
}
);
width = 344;
}
);
unicode = 116;
},
{
color = 10;
glyphname = tbar;
kernLeft = t;
kernRight = t;
lastChange = "2025-05-10 23:13:30 +0000";
layers = (
{
layerId = m01;
shapes = (
{
ref = t;
},
{
closed = 1;
nodes = (
(320,340,l),
(16,340,l),
(16,296,l),
(320,296,l)
);
}
);
width = 344;
}
);
metricLeft = "=t";
metricRight = "=t";
unicode = 359;
},
{
color = 4;
glyphname = u;
kernLeft = u;
kernRight = u;
lastChange = "2025-06-10 08:27:25 +0000";
layers = (
{
anchors = (
{
name = ogonek;
pos = (604,20);
},
{
name = top;
pos = (312,600);
}
);
layerId = m01;
shapes = (
{
closed = 1;
nodes = (
(468,150,l),
(428,98,o),
(358,52,o),
(302,52,cs),
(232,52,o),
(184,102,o),
(184,222,cs),
(184,504,l),
(164,516,l),
(20,480,l),
(20,460,l),
(32,460,ls),
(72,460,o),
(92,440,o),
(92,400,cs),
(92,198,ls),
(92,62,o),
(138,-12,o),
(270,-12,cs),
(334,-12,o),
(409,23,o),
(468,106,c)
);
},
{
closed = 1;
nodes = (
(512,516,l),
(368,480,l),
(368,460,l),
(380,460,ls),
(420,460,o),
(440,440,o),
(440,400,cs),
(440,0,l),
(460,-12,l),
(604,20,l),
(604,40,l),
(592,40,ls),
(552,40,o),
(532,60,o),
(532,100,cs),
(532,504,l)
);
}
);
width = 628;
}
);
unicode = 117;
},
{
color = 4;
glyphname = v;
kernLeft = v;
kernRight = v;
lastChange = "2025-06-09 23:17:43 +0000";
layers = (
{
guides = (
{
angle = 66;
pos = (492,412);
},
{
angle = -66;
pos = (96,412);
},
{
angle = -66;
pos = (196,412);
},
{
angle = 66;
pos = (444,412);
}
);
layerId = m01;
shapes = (
{
closed = 1;
nodes = (
(304,-10,l),
(492,412,ls),
(512,456,o),
(536,476,o),
(584,484,c),
(584,504,l),
(396,504,l),
(396,484,l),
(448,476,o),
(464,456,o),
(444,412,cs),
(320,133,l),
(196,412,ls),
(176,456,o),
(188,476,o),
(240,484,c),
(240,504,l),
(4,504,l),
(4,484,l),
(52,476,o),
(76,456,o),
(96,412,cs),
(284,-10,l)
);
}
);
width = 588;
}
);
unicode = 118;
},
{
color = 4;
glyphname = w;
kernLeft = w;
kernRight = w;
lastChange = "2025-06-09 22:58:11 +0000";
layers = (
{
anchors = (
{
name = top;
pos = (428,600);
}
);
guides = (
{
angle = -68;
pos = (398,412);
},
{
angle = -68;
pos = (496,412);
},
{
angle = -68;
pos = (96,412);
},
{
angle = -68;
pos = (194,412);
},
{
angle = 68;
pos = (713,412);
},
{
angle = 68;
pos = (411,412);
},
{
angle = 68;
pos = (458,412);
},
{
angle = 68;
pos = (760,412);
}
);
layerId = m01;
shapes = (
{
closed = 1;
nodes = (
(589,-10,l),
(760,412,ls),
(778,456,o),
(804,476,o),
(852,484,c),
(852,504,l),
(668,504,l),
(668,484,l),
(720,478,o),
(731,456,o),
(713,412,cs),
(605,144,l),
(496,412,ls),
(478,456,o),
(490,478,o),
(542,484,c),
(542,504,l),
(306,504,l),
(306,484,l),
(354,476,o),
(380,456,o),
(398,412,cs),
(569,-10,l)
);
},
{
closed = 1;
nodes = (
(287,-10,l),
(458,412,l),
(411,412,l),
(303,144,l),
(194,412,ls),
(176,456,o),
(188,478,o),
(240,484,c),
(240,504,l),
(4,504,l),
(4,484,l),
(52,476,o),
(78,456,o),
(96,412,cs),
(267,-10,l)
);
}
);
width = 856;
}
);
metricLeft = "=v";
metricRight = "=v";
unicode = 119;
},
{
color = 4;
glyphname = x;
kernLeft = x;
kernRight = x;
lastChange = "2025-06-09 22:27:49 +0000";
layers = (
{
layerId = m01;
shapes = (
{
closed = 1;
nodes = (
(377,48,o),
(368,26,o),
(316,20,c),
(316,0,l),
(560,0,l),
(560,20,l),
(512,28,o),
(487,48,o),
(456,92,cs),
(230,412,ls),
(199,456,o),
(208,478,o),
(260,484,c),
(260,504,l),
(16,504,l),
(16,484,l),
(64,476,o),
(89,456,o),
(120,412,cs),
(346,92,ls)
);
},
{
closed = 1;
nodes = (
(285,212,l),
(440,412,ls),
(474,456,o),
(498,476,o),
(548,484,c),
(548,504,l),
(360,504,l),
(360,484,l),
(410,478,o),
(419,456,o),
(385,412,cs),
(260,250,l)
);
},
{
closed = 1;
nodes = (
(271,292,l),
(116,92,ls),
(82,48,o),
(58,28,o),
(8,20,c),
(8,0,l),
(196,0,l),
(196,20,l),
(146,26,o),
(137,48,o),
(171,92,cs),
(296,254,l)
);
}
);
width = 568;
}
);
unicode = 120;
},
{
color = 4;
glyphname = y;
kernLeft = v;
kernRight = v;
lastChange = "2025-06-09 22:56:11 +0000";
layers = (
{
anchors = (
{
name = top;
pos = (316,600);
}
);
layerId = m01;
shapes = (
{
closed = 1;
nodes = (
(305,-10,l),
(492,412,ls),
(512,456,o),
(530,476,o),
(586,484,c),
(586,504,l),
(405,504,l),
(405,484,l),
(461,478,o),
(465,456,o),
(445,412,cs),
(321,133,l),
(198,412,ls),
(179,456,o),
(182,478,o),
(238,484,c),
(238,504,l),
(4,504,l),
(4,484,l),
(60,476,o),
(78,456,o),
(98,412,cs),
(271,22,l),
(224,-86,ls),
(200,-140,o),
(158,-168,o),
(99,-168,cs),
(76,-168,o),
(54,-163,o),
(25,-151,c),
(8,-244,l),
(24,-250,o),
(46,-252,o),
(60,-252,cs),
(156,-252,o),
(215,-210,o),
(256,-119,cs)
);
}
);
width = 590;
}
);
metricLeft = "=v";
metricRight = "=v";
unicode = 121;
},
{
color = 4;
glyphname = z;
kernLeft = z;
kernRight = z;
lastChange = "2025-06-02 14:17:56 +0000";
layers = (
{
anchors = (
{
name = top;
pos = (254,600);
}
);
guides = (
{
angle = 55;
pos = (28,20);
}
);
layerId = m01;
shapes = (
{
closed = 1;
nodes = (
(448,144,l),
(424,72,o),
(395,44,o),
(327,44,cs),
(155,44,l),
(464,484,l),
(464,504,l),
(59,504,l),
(40,368,l),
(60,368,l),
(84,440,o),
(111,460,o),
(179,460,cs),
(337,460,l),
(28,20,l),
(28,0,l),
(448,0,l),
(468,144,l)
);
}
);
width = 496;
}
);
unicode = 122;
},
{
color = 5;
glyphname = a.ss02;
kernLeft = a;
kernRight = n;
lastChange = "2025-06-09 22:53:23 +0000";
layers = (
{
anchors = (
{
name = ogonek;
pos = (540,20);
},
{
name = top;
pos = (270,600);
}
);
layerId = m01;
shapes = (
{
closed = 1;
nodes = (
(150,225,o),
(219,255,o),
(347,279,cs),
(379,285,l),
(379,328,l),
(335,321,ls),
(167,294,o),
(52,240,o),
(52,128,cs),
(52,56,o),
(99,-12,o),
(198,-12,cs),
(286,-12,o),
(350,37,o),
(376,84,c),
(376,0,l),
(396,-12,l),
(540,20,l),
(540,40,l),
(528,40,ls),
(488,40,o),
(468,60,o),
(468,100,cs),
(468,314,ls),
(468,421,o),
(432,516,o),
(272,516,cs),
(138,516,o),
(38,429,o),
(74,326,c),
(157,363,l),
(141,419,o),
(190,472,o),
(262,472,cs),
(335,472,o),
(376,411,o),
(376,338,cs),
(376,222,ls),
(376,80,o),
(266,56,o),
(234,56,cs),
(187,56,o),
(150,85,o),
(150,144,cs)
);
}
);
width = 564;
}
);
metricLeft = "=a";
metricRight = "=n";
},
{
color = 5;
glyphname = g.ss03;
kernLeft = o;
kernRight = j;
lastChange = "2025-06-06 07:30:50 +0000";
layers = (
{
anchors = (
{
name = top;
pos = (286,600);
}
);
layerId = m01;
shapes = (
{
closed = 1;
nodes = (
(430,-130,o),
(393,-208,o),
(286,-208,cs),
(206,-208,o),
(164,-163,o),
(142,-96,c),
(56,-134,l),
(97,-216,o),
(177,-252,o),
(272,-252,cs),
(386,-252,o),
(522,-206,o),
(522,26,cs),
(522,508,l),
(502,516,l),
(454,468,l),
(398,504,o),
(338,516,o),
(292,516,cs),
(174,516,o),
(40,438,o),
(40,257,cs),
(40,123,o),
(114,12,o),
(252,12,cs),
(331,12,o),
(387,49,o),
(430,96,c),
(430,0,ls)
);
},
{
closed = 1;
nodes = (
(139,422,o),
(224,470,o),
(288,470,cs),
(350,470,o),
(430,426,o),
(430,328,cs),
(430,143,l),
(392,107,o),
(340,76,o),
(287,76,cs),
(210,76,o),
(139,140,o),
(139,275,cs)
);
}
);
width = 598;
}
);
metricLeft = "=o-4";
metricRight = "=j";
},
{
glyphname = f_b;
kernLeft = f;
kernRight = o;
lastChange = "2025-05-10 23:08:46 +0000";
layers = (
{
layerId = m01;
shapes = (
{
closed = 1;
nodes = (
(124,48,o),
(100,28,o),
(52,20,c),
(52,0,l),
(312,0,l),
(312,20,l),
(242,28,o),
(216,48,o),
(216,92,cs),
(216,460,l),
(352,460,l),
(352,504,l),
(216,504,l),
(216,602,ls),
(216,685,o),
(257,748,o),
(320,748,cs),
(360,748,o),
(401,725,o),
(424,649,c),
(424,-4,l),
(444,-12,l),
(492,36,l),
(548,0,o),
(604,-12,o),
(656,-12,cs),
(792,-12,o),
(914,74,o),
(914,278,cs),
(914,406,o),
(836,516,o),
(700,516,cs),
(615,516,o),
(559,479,o),
(516,432,c),
(516,780,l),
(496,792,l),
(420,774,l),
(388,788,o),
(356,792,o),
(328,792,cs),
(244,792,o),
(124,750,o),
(124,582,cs),
(124,504,l),
(28,504,l),
(28,460,l),
(124,460,l),
(124,92,ls)
);
},
{
closed = 1;
nodes = (
(516,385,l),
(554,421,o),
(606,452,o),
(660,452,cs),
(740,452,o),
(815,388,o),
(815,252,cs),
(815,100,o),
(742,34,o),
(660,34,cs),
(592,34,o),
(516,78,o),
(516,176,cs)
);
}
);
width = 962;
}
);
metricLeft = f;
metricRight = b;
},
{
glyphname = f_f;
kernLeft = f;
kernRight = f;
lastChange = "2025-05-10 23:52:05 +0000";
layers = (
{
layerId = m01;
shapes = (
{
closed = 1;
nodes = (
(424,460,l),
(424,92,ls),
(424,48,o),
(400,28,o),
(352,20,c),
(352,0,l),
(612,0,l),
(612,20,l),
(542,28,o),
(516,48,o),
(516,92,cs),
(516,460,l),
(668,460,l),
(668,504,l),
(516,504,l),
(516,594,ls),
(516,677,o),
(539,740,o),
(602,740,cs),
(644,740,o),
(665,712,o),
(679,666,c),
(764,704,l),
(732,760,o),
(678,784,o),
(612,784,cs),
(565,784,o),
(513,772,o),
(474,730,c),
(429,776,o),
(377,784,o),
(328,784,cs),
(244,784,o),
(124,742,o),
(124,574,cs),
(124,504,l),
(28,504,l),
(28,460,l),
(124,460,l),
(124,92,ls),
(124,48,o),
(100,28,o),
(52,20,c),
(52,0,l),
(312,0,l),
(312,20,l),
(242,28,o),
(216,48,o),
(216,92,cs),
(216,460,l)
);
},
{
closed = 1;
nodes = (
(216,677,o),
(257,740,o),
(320,740,cs),
(362,740,o),
(407,714,o),
(429,631,c),
(426,614,o),
(424,595,o),
(424,574,cs),
(424,504,l),
(216,504,l),
(216,594,ls)
);
}
);
width = 668;
}
);
metricLeft = f;
metricRight = f;
},
{
glyphname = f_f_b;
kernLeft = f;
kernRight = o;
lastChange = "2025-05-10 23:52:17 +0000";
layers = (
{
layerId = m01;
shapes = (
{
closed = 1;
nodes = (
(424,48,o),
(400,28,o),
(352,20,c),
(352,0,l),
(612,0,l),
(612,20,l),
(542,28,o),
(516,48,o),
(516,92,cs),
(516,460,l),
(652,460,l),
(652,504,l),
(516,504,l),
(516,594,ls),
(516,677,o),
(557,740,o),
(620,740,cs),
(660,740,o),
(701,717,o),
(724,641,c),
(724,-4,l),
(744,-12,l),
(792,36,l),
(848,0,o),
(904,-12,o),
(956,-12,cs),
(1092,-12,o),
(1214,74,o),
(1214,278,cs),
(1214,406,o),
(1136,516,o),
(1000,516,cs),
(915,516,o),
(859,479,o),
(816,432,c),
(816,772,l),
(796,784,l),
(720,766,l),
(688,780,o),
(656,784,o),
(628,784,cs),
(580,784,o),
(521,771,o),
(478,727,c),
(433,774,o),
(378,784,o),
(328,784,cs),
(244,784,o),
(124,742,o),
(124,574,cs),
(124,504,l),
(28,504,l),
(28,460,l),
(124,460,l),
(124,92,ls),
(124,48,o),
(100,28,o),
(52,20,c),
(52,0,l),
(312,0,l),
(312,20,l),
(242,28,o),
(216,48,o),
(216,92,cs),
(216,460,l),
(424,460,l),
(424,92,ls)
);
},
{
closed = 1;
nodes = (
(216,677,o),
(257,740,o),
(320,740,cs),
(362,740,o),
(407,713,o),
(429,631,c),
(426,615,o),
(424,595,o),
(424,574,cs),
(424,504,l),
(216,504,l),
(216,594,ls)
);
},
{
closed = 1;
nodes = (
(816,385,l),
(854,421,o),
(906,452,o),
(960,452,cs),
(1040,452,o),
(1115,388,o),
(1115,252,cs),
(1115,100,o),
(1042,34,o),
(960,34,cs),
(892,34,o),
(816,78,o),
(816,176,cs)
);
}
);
width = 1262;
}
);
metricLeft = f;
metricRight = b;
},
{
glyphname = f_f_h;
kernLeft = f;
kernRight = n;
lastChange = "2025-05-10 23:52:37 +0000";
layers = (
{
layerId = m01;
shapes = (
{
closed = 1;
nodes = (
(788,354,l),
(828,406,o),
(898,452,o),
(958,452,cs),
(1028,452,o),
(1080,402,o),
(1080,282,cs),
(1080,92,ls),
(1080,48,o),
(1056,28,o),
(1008,20,c),
(1008,0,l),
(1244,0,l),
(1244,20,l),
(1196,28,o),
(1172,48,o),
(1172,92,cs),
(1172,306,ls),
(1172,442,o),
(1122,516,o),
(990,516,cs),
(922,516,o),
(847,481,o),
(788,398,c)
);
},
{
closed = 1;
nodes = (
(424,48,o),
(400,28,o),
(352,20,c),
(352,0,l),
(612,0,l),
(612,20,l),
(542,28,o),
(516,48,o),
(516,92,cs),
(516,460,l),
(652,460,l),
(652,504,l),
(516,504,l),
(516,594,ls),
(516,677,o),
(557,740,o),
(620,740,cs),
(660,740,o),
(701,717,o),
(724,641,c),
(724,92,ls),
(724,48,o),
(700,28,o),
(652,20,c),
(652,0,l),
(888,0,l),
(888,20,l),
(840,28,o),
(816,48,o),
(816,92,cs),
(816,772,l),
(796,784,l),
(720,766,l),
(688,780,o),
(656,784,o),
(628,784,cs),
(580,784,o),
(521,771,o),
(478,727,c),
(433,774,o),
(378,784,o),
(328,784,cs),
(244,784,o),
(124,742,o),
(124,574,cs),
(124,504,l),
(28,504,l),
(28,460,l),
(124,460,l),
(124,92,ls),
(124,48,o),
(100,28,o),
(52,20,c),
(52,0,l),
(312,0,l),
(312,20,l),
(242,28,o),
(216,48,o),
(216,92,cs),
(216,460,l),
(424,460,l),
(424,92,ls)
);
},
{
closed = 1;
nodes = (
(216,677,o),
(257,740,o),
(320,740,cs),
(362,740,o),
(407,713,o),
(429,631,c),
(426,615,o),
(424,595,o),
(424,574,cs),
(424,504,l),
(216,504,l),
(216,594,ls)
);
}
);
width = 1268;
}
);
metricLeft = f;
metricRight = h;
},
{
glyphname = f_f_i;
kernLeft = f;
kernRight = i;
lastChange = "2025-05-10 23:52:40 +0000";
layers = (
{
layerId = m01;
shapes = (
{
closed = 1;
nodes = (
(312,0,l),
(312,20,l),
(242,28,o),
(216,48,o),
(216,92,cs),
(216,460,l),
(424,460,l),
(424,92,ls),
(424,48,o),
(400,28,o),
(352,20,c),
(352,0,l),
(612,0,l),
(612,20,l),
(542,28,o),
(516,48,o),
(516,92,cs),
(516,460,l),
(664,460,ls),
(704,460,o),
(724,440,o),
(724,400,cs),
(724,92,ls),
(724,48,o),
(700,28,o),
(652,20,c),
(652,0,l),
(888,0,l),
(888,20,l),
(840,28,o),
(816,48,o),
(816,92,cs),
(816,504,l),
(796,516,l),
(692,504,l),
(516,504,l),
(516,594,ls),
(516,677,o),
(557,740,o),
(620,740,cs),
(662,740,o),
(705,714,o),
(727,630,c),
(816,668,l),
(766,768,o),
(694,784,o),
(628,784,cs),
(580,784,o),
(521,771,o),
(478,727,c),
(433,774,o),
(378,784,o),
(328,784,cs),
(244,784,o),
(124,742,o),
(124,574,cs),
(124,504,l),
(28,504,l),
(28,460,l),
(124,460,l),
(124,92,ls),
(124,48,o),
(100,28,o),
(52,20,c),
(52,0,l)
);
},
{
closed = 1;
nodes = (
(216,594,ls),
(216,677,o),
(257,740,o),
(320,740,cs),
(362,740,o),
(407,714,o),
(429,630,c),
(426,614,o),
(424,595,o),
(424,574,cs),
(424,504,l),
(216,504,l)
);
}
);
width = 916;
}
);
metricLeft = f;
metricRight = i;
},
{
glyphname = f_f_j;
kernLeft = f;
kernRight = j;
lastChange = "2025-05-10 23:52:43 +0000";
layers = (
{
layerId = m01;
shapes = (
{
closed = 1;
nodes = (
(424,460,l),
(424,92,ls),
(424,48,o),
(400,28,o),
(352,20,c),
(352,0,l),
(612,0,l),
(612,20,l),
(542,28,o),
(516,48,o),
(516,92,cs),
(516,460,l),
(664,460,ls),
(704,460,o),
(724,440,o),
(724,400,cs),
(724,-62,ls),
(724,-145,o),
(701,-208,o),
(638,-208,cs),
(596,-208,o),
(575,-180,o),
(561,-134,c),
(476,-172,l),
(508,-228,o),
(562,-252,o),
(628,-252,cs),
(712,-252,o),
(816,-210,o),
(816,-42,cs),
(816,504,l),
(796,516,l),
(692,504,l),
(516,504,l),
(516,594,ls),
(516,677,o),
(557,740,o),
(620,740,cs),
(662,740,o),
(705,714,o),
(727,630,c),
(816,668,l),
(766,768,o),
(694,784,o),
(628,784,cs),
(580,784,o),
(521,771,o),
(478,727,c),
(433,774,o),
(378,784,o),
(328,784,cs),
(244,784,o),
(124,742,o),
(124,574,cs),
(124,504,l),
(28,504,l),
(28,460,l),
(124,460,l),
(124,92,ls),
(124,48,o),
(100,28,o),
(52,20,c),
(52,0,l),
(312,0,l),
(312,20,l),
(242,28,o),
(216,48,o),
(216,92,cs),
(216,460,l)
);
},
{
closed = 1;
nodes = (
(216,594,ls),
(216,677,o),
(257,740,o),
(320,740,cs),
(362,740,o),
(407,714,o),
(429,630,c),
(426,614,o),
(424,595,o),
(424,574,cs),
(424,504,l),
(216,504,l)
);
}
);
width = 844;
}
);
metricLeft = f;
metricRight = i;
},
{
glyphname = f_f_k;
kernLeft = f;
kernRight = k;
lastChange = "2025-05-10 23:52:46 +0000";
layers = (
{
layerId = m01;
shapes = (
{
closed = 1;
nodes = (
(724,92,ls),
(724,52,o),
(704,28,o),
(652,20,c),
(652,0,l),
(888,0,l),
(888,20,l),
(836,28,o),
(816,52,o),
(816,92,cs),
(816,172,l),
(873,229,l),
(1000,53,ls),
(1006,45,o),
(1020,24,o),
(1020,0,c),
(1190,0,l),
(1190,20,l),
(1138,28,o),
(1114,48,o),
(1082,92,cs),
(936,293,l),
(1054,412,ls),
(1097,455,o),
(1126,476,o),
(1174,484,c),
(1174,504,l),
(976,504,l),
(976,484,l),
(1028,478,o),
(1036,456,o),
(993,412,cs),
(816,233,l),
(816,772,l),
(796,784,l),
(720,766,l),
(688,780,o),
(656,784,o),
(628,784,cs),
(580,784,o),
(521,771,o),
(478,727,c),
(433,774,o),
(378,784,o),
(328,784,cs),
(244,784,o),
(124,742,o),
(124,574,cs),
(124,504,l),
(28,504,l),
(28,460,l),
(124,460,l),
(124,92,ls),
(124,48,o),
(100,28,o),
(52,20,c),
(52,0,l),
(312,0,l),
(312,20,l),
(242,28,o),
(216,48,o),
(216,92,cs),
(216,460,l),
(424,460,l),
(424,92,ls),
(424,48,o),
(400,28,o),
(352,20,c),
(352,0,l),
(612,0,l),
(612,20,l),
(542,28,o),
(516,48,o),
(516,92,cs),
(516,460,l),
(652,460,l),
(652,504,l),
(516,504,l),
(516,594,ls),
(516,677,o),
(557,740,o),
(620,740,cs),
(660,740,o),
(701,717,o),
(724,641,c)
);
},
{
closed = 1;
nodes = (
(216,677,o),
(257,740,o),
(320,740,cs),
(362,740,o),
(407,713,o),
(429,631,c),
(426,615,o),
(424,595,o),
(424,574,cs),
(424,504,l),
(216,504,l),
(216,594,ls)
);
}
);
width = 1190;
}
);
metricLeft = f;
metricRight = k;
},
{
glyphname = f_f_l;
kernLeft = f;
kernRight = l;
lastChange = "2025-05-10 23:52:49 +0000";
layers = (
{
layerId = m01;
shapes = (
{
closed = 1;
nodes = (
(124,48,o),
(100,28,o),
(52,20,c),
(52,0,l),
(312,0,l),
(312,20,l),
(242,28,o),
(216,48,o),
(216,92,cs),
(216,460,l),
(424,460,l),
(424,92,ls),
(424,48,o),
(400,28,o),
(352,20,c),
(352,0,l),
(612,0,l),
(612,20,l),
(542,28,o),
(516,48,o),
(516,92,cs),
(516,460,l),
(652,460,l),
(652,504,l),
(516,504,l),
(516,594,ls),
(516,677,o),
(557,740,o),
(620,740,cs),
(660,740,o),
(701,717,o),
(724,641,c),
(724,92,ls),
(724,48,o),
(700,28,o),
(652,20,c),
(652,0,l),
(888,0,l),
(888,20,l),
(840,28,o),
(816,48,o),
(816,92,cs),
(816,772,l),
(796,784,l),
(720,766,l),
(688,780,o),
(656,784,o),
(628,784,cs),
(580,784,o),
(521,771,o),
(478,727,c),
(433,774,o),
(378,784,o),
(328,784,cs),
(244,784,o),
(124,742,o),
(124,574,cs),
(124,504,l),
(28,504,l),
(28,460,l),
(124,460,l),
(124,92,ls)
);
},
{
closed = 1;
nodes = (
(216,677,o),
(257,740,o),
(320,740,cs),
(362,740,o),
(407,713,o),
(429,631,c),
(426,615,o),
(424,595,o),
(424,574,cs),
(424,504,l),
(216,504,l),
(216,594,ls)
);
}
);
width = 916;
}
);
metricLeft = f;
metricRight = l;
},
{
glyphname = f_h;
kernLeft = f;
kernRight = n;
lastChange = "2025-05-10 23:52:53 +0000";
layers = (
{
layerId = m01;
shapes = (
{
closed = 1;
nodes = (
(488,354,l),
(528,406,o),
(598,452,o),
(658,452,cs),
(728,452,o),
(780,402,o),
(780,282,cs),
(780,92,ls),
(780,48,o),
(756,28,o),
(708,20,c),
(708,0,l),
(944,0,l),
(944,20,l),
(896,28,o),
(872,48,o),
(872,92,cs),
(872,306,ls),
(872,442,o),
(822,516,o),
(690,516,cs),
(622,516,o),
(547,481,o),
(488,398,c)
);
},
{
closed = 1;
nodes = (
(124,48,o),
(100,28,o),
(52,20,c),
(52,0,l),
(312,0,l),
(312,20,l),
(242,28,o),
(216,48,o),
(216,92,cs),
(216,460,l),
(352,460,l),
(352,504,l),
(216,504,l),
(216,594,ls),
(216,677,o),
(257,740,o),
(320,740,cs),
(360,740,o),
(401,717,o),
(424,641,c),
(424,92,ls),
(424,48,o),
(400,28,o),
(352,20,c),
(352,0,l),
(588,0,l),
(588,20,l),
(540,28,o),
(516,48,o),
(516,92,cs),
(516,772,l),
(496,784,l),
(420,766,l),
(388,780,o),
(356,784,o),
(328,784,cs),
(244,784,o),
(124,742,o),
(124,574,cs),
(124,504,l),
(28,504,l),
(28,460,l),
(124,460,l),
(124,92,ls)
);
}
);
width = 968;
}
);
metricLeft = f;
metricRight = h;
},
{
glyphname = f_i;
kernLeft = f;
kernRight = i;
lastChange = "2025-05-10 23:52:56 +0000";
layers = (
{
layerId = m01;
shapes = (
{
closed = 1;
nodes = (
(124,48,o),
(100,28,o),
(52,20,c),
(52,0,l),
(312,0,l),
(312,20,l),
(242,28,o),
(216,48,o),
(216,92,cs),
(216,460,l),
(364,460,ls),
(404,460,o),
(424,440,o),
(424,400,cs),
(424,92,ls),
(424,48,o),
(400,28,o),
(352,20,c),
(352,0,l),
(588,0,l),
(588,20,l),
(540,28,o),
(516,48,o),
(516,92,cs),
(516,504,l),
(496,516,l),
(392,504,l),
(216,504,l),
(216,594,ls),
(216,677,o),
(257,740,o),
(320,740,cs),
(362,740,o),
(405,714,o),
(427,630,c),
(516,668,l),
(466,768,o),
(394,784,o),
(328,784,cs),
(244,784,o),
(124,742,o),
(124,574,cs),
(124,504,l),
(28,504,l),
(28,460,l),
(124,460,l),
(124,92,ls)
);
}
);
width = 616;
}
);
metricLeft = f;
metricRight = i;
},
{
glyphname = f_j;
kernLeft = f;
kernRight = j;
lastChange = "2025-05-10 23:53:00 +0000";
layers = (
{
layerId = m01;
shapes = (
{
closed = 1;
nodes = (
(124,48,o),
(100,28,o),
(52,20,c),
(52,0,l),
(312,0,l),
(312,20,l),
(242,28,o),
(216,48,o),
(216,92,cs),
(216,460,l),
(364,460,ls),
(404,460,o),
(424,440,o),
(424,400,cs),
(424,-62,ls),
(424,-145,o),
(401,-208,o),
(338,-208,cs),
(296,-208,o),
(275,-180,o),
(261,-134,c),
(176,-172,l),
(208,-228,o),
(262,-252,o),
(328,-252,cs),
(412,-252,o),
(516,-210,o),
(516,-42,cs),
(516,504,l),
(496,516,l),
(392,504,l),
(216,504,l),
(216,594,ls),
(216,677,o),
(257,740,o),
(320,740,cs),
(362,740,o),
(405,714,o),
(427,630,c),
(516,668,l),
(466,768,o),
(394,784,o),
(328,784,cs),
(244,784,o),
(124,742,o),
(124,574,cs),
(124,504,l),
(28,504,l),
(28,460,l),
(124,460,l),
(124,92,ls)
);
}
);
width = 592;
}
);
metricLeft = f;
metricRight = j;
},
{
glyphname = f_k;
kernLeft = f;
kernRight = k;
lastChange = "2025-05-10 23:53:04 +0000";
layers = (
{
layerId = m01;
shapes = (
{
closed = 1;
nodes = (
(424,92,ls),
(424,52,o),
(404,28,o),
(352,20,c),
(352,0,l),
(588,0,l),
(588,20,l),
(536,28,o),
(516,52,o),
(516,92,cs),
(516,172,l),
(573,229,l),
(700,53,ls),
(706,45,o),
(720,24,o),
(720,0,c),
(890,0,l),
(890,20,l),
(838,28,o),
(814,48,o),
(782,92,cs),
(636,293,l),
(754,412,ls),
(797,455,o),
(826,476,o),
(874,484,c),
(874,504,l),
(676,504,l),
(676,484,l),
(728,478,o),
(736,456,o),
(693,412,cs),
(516,233,l),
(516,772,l),
(496,784,l),
(420,766,l),
(388,780,o),
(356,784,o),
(328,784,cs),
(244,784,o),
(124,742,o),
(124,574,cs),
(124,504,l),
(28,504,l),
(28,460,l),
(124,460,l),
(124,92,ls),
(124,48,o),
(100,28,o),
(52,20,c),
(52,0,l),
(312,0,l),
(312,20,l),
(242,28,o),
(216,48,o),
(216,92,cs),
(216,460,l),
(352,460,l),
(352,504,l),
(216,504,l),
(216,594,ls),
(216,677,o),
(257,740,o),
(320,740,cs),
(360,740,o),
(401,717,o),
(424,641,c)
);
}
);
width = 890;
}
);
metricLeft = f;
metricRight = k;
},
{
glyphname = f_l;
kernLeft = f;
kernRight = l;
lastChange = "2025-05-10 23:53:06 +0000";
layers = (
{
layerId = m01;
shapes = (
{
closed = 1;
nodes = (
(124,48,o),
(100,28,o),
(52,20,c),
(52,0,l),
(312,0,l),
(312,20,l),
(242,28,o),
(216,48,o),
(216,92,cs),
(216,460,l),
(352,460,l),
(352,504,l),
(216,504,l),
(216,594,ls),
(216,677,o),
(257,740,o),
(320,740,cs),
(360,740,o),
(401,717,o),
(424,641,c),
(424,92,ls),
(424,48,o),
(400,28,o),
(352,20,c),
(352,0,l),
(588,0,l),
(588,20,l),
(540,28,o),
(516,48,o),
(516,92,cs),
(516,772,l),
(496,784,l),
(420,766,l),
(388,780,o),
(356,784,o),
(328,784,cs),
(244,784,o),
(124,742,o),
(124,574,cs),
(124,504,l),
(28,504,l),
(28,460,l),
(124,460,l),
(124,92,ls)
);
}
);
width = 616;
}
);
metricLeft = f;
metricRight = l;
},
{
color = 4;
glyphname = ordfeminine;
lastChange = "2025-05-10 23:08:46 +0000";
layers = (
{
layerId = m01;
shapes = (
{
closed = 1;
nodes = (
(224,626,l),
(109,611,o),
(28,580,o),
(28,508,cs),
(28,465,o),
(57,424,o),
(116,424,cs),
(173,424,o),
(210,452,o),
(229,487,c),
(229,480,ls),
(232,443,o),
(256,424,o),
(285,424,cs),
(305,424,o),
(329,432,o),
(343,446,c),
(335,461,l),
(306,452,o),
(291,455,o),
(288,496,cs),
(280,619,ls),
(275,687,o),
(257,740,o),
(162,740,cs),
(81,740,o),
(20,688,o),
(42,626,c),
(102,645,l),
(90,680,o),
(107,714,o),
(152,714,cs),
(195,714,o),
(211,681,o),
(214,633,cs),
(219,562,ls),
(225,481,o),
(164,469,o),
(147,469,cs),
(119,469,o),
(100,482,o),
(100,517,cs),
(100,569,o),
(136,585,o),
(224,602,c)
);
}
);
width = 331;
}
);
unicode = 170;
},
{
color = 4;
glyphname = ordmasculine;
lastChange = "2025-05-10 23:08:46 +0000";
layers = (
{
layerId = m01;
shapes = (
{
closed = 1;
nodes = (
(107,740,o),
(40,673,o),
(40,582,cs),
(40,491,o),
(107,424,o),
(198,424,cs),
(289,424,o),
(356,491,o),
(356,582,cs),
(356,673,o),
(289,740,o),
(198,740,cs)
);
},
{
closed = 1;
nodes = (
(253,714,o),
(284,639,o),
(284,570,cs),
(284,501,o),
(253,450,o),
(203,450,cs),
(143,450,o),
(112,524,o),
(112,594,cs),
(112,663,o),
(143,714,o),
(193,714,cs)
);
}
);
width = 396;
}
);
unicode = 186;
},
{
color = 4;
glyphname = ordfeminine.ss02;
lastChange = "2025-05-10 23:08:46 +0000";
layers = (
{
layerId = m01;
shapes = (
{
closed = 1;
nodes = (
(100,565,o),
(132,584,o),
(209,598,cs),
(228,602,l),
(228,627,l),
(202,623,ls),
(98,607,o),
(28,574,o),
(28,508,cs),
(28,465,o),
(56,424,o),
(120,424,cs),
(172,424,o),
(204,451,o),
(218,475,c),
(218,430,l),
(236,424,l),
(322,443,l),
(322,459,l),
(315,459,ls),
(291,459,o),
(280,470,o),
(280,494,cs),
(280,619,ls),
(280,683,o),
(260,740,o),
(164,740,cs),
(81,740,o),
(21,688,o),
(42,626,c),
(100,645,l),
(88,687,o),
(113,714,o),
(158,714,cs),
(202,714,o),
(218,676,o),
(218,633,cs),
(218,564,ls),
(218,479,o),
(168,468,o),
(149,468,cs),
(121,468,o),
(100,481,o),
(100,516,cs)
);
}
);
width = 338;
}
);
},
{
color = 4;
glyphname = zero;
kernLeft = zero;
kernRight = zero;
lastChange = "2025-05-12 00:48:20 +0000";
layers = (
{
layerId = m01;
shapes = (
{
closed = 1;
nodes = (
(161,740,o),
(48,590,o),
(48,364,cs),
(48,138,o),
(161,-12,o),
(330,-12,cs),
(499,-12,o),
(612,138,o),
(612,364,cs),
(612,590,o),
(499,740,o),
(330,740,cs)
);
},
{
closed = 1;
nodes = (
(429,694,o),
(500,556,o),
(500,337,cs),
(500,138,o),
(444,34,o),
(342,34,cs),
(232,34,o),
(160,172,o),
(160,392,cs),
(160,590,o),
(216,694,o),
(318,694,cs)
);
}
);
width = 660;
}
);
unicode = 48;
},
{
color = 4;
glyphname = one;
kernLeft = one;
kernRight = one;
lastChange = "2025-05-12 00:48:25 +0000";
layers = (
{
guides = (
{
angle = -60;
pos = (30,596);
}
);
layerId = m01;
shapes = (
{
closed = 1;
nodes = (
(162,48,o),
(136,26,o),
(66,20,c),
(66,0,l),
(338,0,l),
(338,20,l),
(282,28,o),
(258,48,o),
(258,100,cs),
(258,728,l),
(238,740,l),
(20,614,l),
(30,596,l),
(162,628,l),
(162,100,ls)
);
}
);
width = 370;
}
);
unicode = 49;
},
{
color = 4;
glyphname = two;
kernLeft = two;
kernRight = two;
lastChange = "2025-05-12 00:47:15 +0000";
layers = (
{
layerId = m01;
shapes = (
{
closed = 1;
nodes = (
(486,0,l),
(520,196,l),
(500,196,l),
(472,108,o),
(440,84,o),
(380,84,cs),
(146,84,l),
(311,232,o),
(496,348,o),
(496,530,cs),
(496,645,o),
(421,740,o),
(278,740,cs),
(114,740,o),
(1,615,o),
(56,483,c),
(159,519,l),
(113,608,o),
(173,694,o),
(268,694,cs),
(358,694,o),
(394,618,o),
(394,528,cs),
(394,351,o),
(244,237,o),
(32,20,c),
(32,0,l)
);
}
);
width = 572;
}
);
unicode = 50;
},
{
color = 4;
glyphname = three;
kernLeft = three;
kernRight = eight;
lastChange = "2025-06-08 22:29:57 +0000";
layers = (
{
layerId = m01;
shapes = (
{
closed = 1;
nodes = (
(420,301,o),
(323,364,o),
(203,368,c),
(203,388,l),
(359,413,o),
(392,504,o),
(392,562,cs),
(392,634,o),
(344,694,o),
(271,694,cs),
(195,694,o),
(144,626,o),
(128,550,c),
(40,589,l),
(74,681,o),
(165,740,o),
(277,740,cs),
(421,740,o),
(488,653,o),
(488,564,cs),
(488,486,o),
(427,412,o),
(335,390,c),
(423,379,o),
(524,312,o),
(524,187,cs),
(524,70,o),
(437,-12,o),
(289,-12,cs),
(153,-12,o),
(69,50,o),
(32,160,c),
(127,201,l),
(152,98,o),
(203,34,o),
(287,34,cs),
(378,34,o),
(420,107,o),
(420,185,cs)
);
}
);
width = 576;
}
);
metricRight = "=eight";
unicode = 51;
},
{
color = 4;
glyphname = four;
kernLeft = four;
kernRight = four;
lastChange = "2025-05-12 00:52:19 +0000";
layers = (
{
layerId = m01;
shapes = (
{
closed = 1;
nodes = (
(378,48,o),
(352,26,o),
(282,20,c),
(282,0,l),
(554,0,l),
(554,20,l),
(498,28,o),
(474,48,o),
(474,100,cs),
(474,184,l),
(602,184,l),
(602,248,l),
(474,248,l),
(474,728,l),
(396,728,l),
(32,208,l),
(32,184,l),
(378,184,l),
(378,100,ls)
);
},
{
closed = 1;
nodes = (
(378,622,l),
(378,248,l),
(116,248,l)
);
}
);
width = 630;
}
);
unicode = 52;
},
{
color = 4;
glyphname = five;
kernLeft = five;
kernRight = six;
lastChange = "2025-06-07 06:24:13 +0000";
layers = (
{
layerId = m01;
shapes = (
{
closed = 1;
nodes = (
(472,-12,o),
(553,117,o),
(547,251,cs),
(541,399,o),
(431,470,o),
(317,472,cs),
(241,474,o),
(184,450,o),
(131,405,c),
(174,648,l),
(510,648,l),
(510,728,l),
(141,728,l),
(72,337,l),
(90,331,l),
(139,375,o),
(209,408,o),
(277,408,cs),
(357,408,o),
(428,363,o),
(443,240,cs),
(455,145,o),
(415,34,o),
(299,34,cs),
(203,34,o),
(156,96,o),
(131,201,c),
(36,160,l),
(72,50,o),
(156,-12,o),
(294,-12,cs)
);
}
);
width = 595;
}
);
metricRight = "=zero";
unicode = 53;
},
{
color = 4;
glyphname = six;
kernLeft = zero;
kernRight = six;
lastChange = "2025-05-12 00:46:45 +0000";
layers = (
{
layerId = m01;
shapes = (
{
closed = 1;
nodes = (
(511,-12,o),
(592,126,o),
(583,254,cs),
(573,403,o),
(463,476,o),
(346,472,cs),
(271,469,o),
(198,432,o),
(161,355,c),
(160,392,ls),
(154,596,o),
(224,694,o),
(326,694,cs),
(391,694,o),
(440,656,o),
(470,568,c),
(569,604,l),
(528,692,o),
(440,740,o),
(342,740,cs),
(166,740,o),
(48,596,o),
(48,352,cs),
(48,148,o),
(146,-12,o),
(330,-12,cs)
);
},
{
closed = 1;
nodes = (
(539,34,o),
(340,34,cs),
(244,34,o),
(189,124,o),
(177,218,cs),
(161,348,o),
(240,408,o),
(324,408,cs),
(521,408,o)
);
}
);
width = 628;
}
);
metricLeft = "=zero";
unicode = 54;
},
{
color = 4;
glyphname = seven;
kernLeft = seven;
kernRight = seven;
lastChange = "2025-06-08 22:30:04 +0000";
layers = (
{
layerId = m01;
shapes = (
{
closed = 1;
nodes = (
(60,728,l),
(26,532,l),
(46,532,l),
(74,620,o),
(106,644,o),
(166,644,cs),
(435,644,l),
(255,460,o),
(144,198,o),
(144,0,c),
(252,0,l),
(252,198,o),
(324,462,o),
(532,708,c),
(532,728,l)
);
}
);
width = 540;
}
);
unicode = 55;
},
{
color = 4;
glyphname = eight;
kernLeft = eight;
kernRight = eight;
lastChange = "2025-05-12 00:49:00 +0000";
layers = (
{
layerId = m01;
shapes = (
{
closed = 1;
nodes = (
(80,456,o),
(143,408,o),
(222,364,c),
(101,316,o),
(52,240,o),
(52,172,cs),
(52,68,o),
(159,-12,o),
(300,-12,cs),
(449,-12,o),
(556,77,o),
(556,196,cs),
(556,307,o),
(464,359,o),
(372,404,c),
(491,441,o),
(528,516,o),
(528,573,cs),
(528,666,o),
(434,740,o),
(308,740,cs),
(176,740,o),
(80,658,o),
(80,547,cs)
);
},
{
closed = 1;
nodes = (
(152,232,o),
(171,291,o),
(256,346,c),
(286,330,ls),
(367,288,o),
(456,245,o),
(456,157,cs),
(456,83,o),
(391,36,o),
(309,36,cs),
(218,36,o),
(152,97,o),
(152,184,cs)
);
},
{
closed = 1;
nodes = (
(176,651,o),
(228,694,o),
(302,694,cs),
(378,694,o),
(432,649,o),
(432,564,cs),
(432,513,o),
(410,470,o),
(341,419,c),
(326,426,ls),
(247,466,o),
(176,507,o),
(176,585,cs)
);
}
);
width = 608;
}
);
unicode = 56;
},
{
color = 4;
glyphname = nine;
kernLeft = nine;
kernRight = zero;
lastChange = "2025-06-05 04:05:48 +0000";
layers = (
{
layerId = m01;
shapes = (
{
closed = 1;
nodes = (
(117,740,o),
(36,602,o),
(45,474,cs),
(55,325,o),
(165,252,o),
(282,256,cs),
(357,259,o),
(430,296,o),
(467,373,c),
(468,336,ls),
(474,132,o),
(404,34,o),
(302,34,cs),
(237,34,o),
(188,72,o),
(158,160,c),
(59,124,l),
(100,36,o),
(188,-12,o),
(286,-12,cs),
(462,-12,o),
(580,132,o),
(580,376,cs),
(580,580,o),
(482,740,o),
(298,740,cs)
);
},
{
closed = 1;
nodes = (
(89,694,o),
(288,694,cs),
(384,694,o),
(439,604,o),
(451,510,cs),
(467,380,o),
(388,320,o),
(304,320,cs),
(107,320,o)
);
}
);
width = 628;
}
);
metricLeft = "=|six";
metricRight = "=|six";
unicode = 57;
},
{
glyphname = .notdef;
lastChange = "2025-05-10 23:08:46 +0000";
layers = (
{
layerId = m01;
shapes = (
{
closed = 1;
nodes = (
(791,-12,o),
(952,150,o),
(952,364,cs),
(952,578,o),
(790,740,o),
(576,740,cs),
(361,740,o),
(200,578,o),
(200,364,cs),
(200,150,o),
(362,-12,o),
(576,-12,cs)
);
},
{
closed = 1;
nodes = (
(552,118,o),
(533,137,o),
(533,160,cs),
(533,184,o),
(552,202,o),
(576,202,cs),
(599,202,o),
(617,184,o),
(617,160,cs),
(617,137,o),
(599,118,o),
(576,118,cs)
);
},
{
closed = 1;
nodes = (
(537,309,o),
(545,347,o),
(601,397,cs),
(639,432,o),
(657,447,o),
(657,491,cs),
(657,539,o),
(630,575,o),
(585,575,cs),
(529,575,o),
(502,533,o),
(498,477,c),
(431,503,l),
(447,567,o),
(506,607,o),
(585,607,cs),
(673,607,o),
(729,555,o),
(729,487,cs),
(729,438,o),
(707,396,o),
(643,352,cs),
(616,334,o),
(581,311,o),
(586,250,c),
(562,250,l)
);
}
);
width = 1152;
}
);
metricRight = "=|.notdef";
},
{
color = 4;
glyphname = period;
kernLeft = period;
kernRight = period;
lastChange = "2025-05-11 15:04:07 +0000";
layers = (
{
layerId = m01;
shapes = (
{
closed = 1;
nodes = (
(56,15,o),
(83,-12,o),
(118,-12,cs),
(153,-12,o),
(180,15,o),
(180,50,cs),
(180,85,o),
(153,112,o),
(118,112,cs),
(83,112,o),
(56,85,o),
(56,50,cs)
);
}
);
width = 236;
}
);
unicode = 46;
},
{
color = 4;
glyphname = comma;
kernLeft = period;
kernRight = period;
lastChange = "2025-06-08 12:11:30 +0000";
layers = (
{
layerId = m01;
shapes = (
{
closed = 1;
nodes = (
(72,-112,l),
(156,-84,o),
(188,-24,o),
(188,30,cs),
(188,87,o),
(153,112,o),
(118,112,cs),
(83,112,o),
(56,85,o),
(56,50,cs),
(56,-6,o),
(118,-19,o),
(140,5,c),
(140,-31,o),
(114,-66,o),
(64,-97,c)
);
}
);
width = 244;
}
);
metricLeft = "=period";
metricRight = "=period";
unicode = 44;
},
{
color = 4;
glyphname = colon;
kernLeft = colon;
kernRight = colon;
lastChange = "2025-05-10 23:08:46 +0000";
layers = (
{
layerId = m01;
shapes = (
{
closed = 1;
nodes = (
(60,15,o),
(87,-12,o),
(122,-12,cs),
(157,-12,o),
(184,15,o),
(184,50,cs),
(184,85,o),
(157,112,o),
(122,112,cs),
(87,112,o),
(60,85,o),
(60,50,cs)
);
},
{
closed = 1;
nodes = (
(60,387,o),
(87,360,o),
(122,360,cs),
(157,360,o),
(184,387,o),
(184,422,cs),
(184,457,o),
(157,484,o),
(122,484,cs),
(87,484,o),
(60,457,o),
(60,422,cs)
);
}
);
width = 244;
}
);
unicode = 58;
},
{
color = 4;
glyphname = semicolon;
kernLeft = colon;
kernRight = colon;
lastChange = "2025-05-10 23:08:46 +0000";
layers = (
{
layerId = m01;
shapes = (
{
closed = 1;
nodes = (
(76,-112,l),
(160,-84,o),
(192,-24,o),
(192,30,cs),
(192,87,o),
(157,112,o),
(122,112,cs),
(87,112,o),
(60,85,o),
(60,50,cs),
(60,-6,o),
(122,-19,o),
(144,5,c),
(144,-31,o),
(118,-66,o),
(68,-97,c)
);
},
{
closed = 1;
nodes = (
(60,387,o),
(87,360,o),
(122,360,cs),
(157,360,o),
(184,387,o),
(184,422,cs),
(184,457,o),
(157,484,o),
(122,484,cs),
(87,484,o),
(60,457,o),
(60,422,cs)
);
}
);
width = 252;
}
);
metricLeft = "=colon";
metricRight = "=colon";
unicode = 59;
},
{
color = 4;
glyphname = ellipsis;
kernLeft = period;
kernRight = period;
lastChange = "2025-05-10 23:08:46 +0000";
layers = (
{
layerId = m01;
shapes = (
{
closed = 1;
nodes = (
(56,15,o),
(83,-12,o),
(118,-12,cs),
(153,-12,o),
(180,15,o),
(180,50,cs),
(180,85,o),
(153,112,o),
(118,112,cs),
(83,112,o),
(56,85,o),
(56,50,cs)
);
},
{
closed = 1;
nodes = (
(252,15,o),
(279,-12,o),
(314,-12,cs),
(349,-12,o),
(376,15,o),
(376,50,cs),
(376,85,o),
(349,112,o),
(314,112,cs),
(279,112,o),
(252,85,o),
(252,50,cs)
);
},
{
closed = 1;
nodes = (
(448,15,o),
(475,-12,o),
(510,-12,cs),
(545,-12,o),
(572,15,o),
(572,50,cs),
(572,85,o),
(545,112,o),
(510,112,cs),
(475,112,o),
(448,85,o),
(448,50,cs)
);
}
);
width = 628;
}
);
metricLeft = "=period";
metricRight = "=period";
unicode = 8230;
},
{
color = 4;
glyphname = exclam;
kernLeft = exclam;
kernRight = exclam;
lastChange = "2025-05-11 14:49:54 +0000";
layers = (
{
layerId = m01;
shapes = (
{
closed = 1;
nodes = (
(76,15,o),
(103,-12,o),
(138,-12,cs),
(173,-12,o),
(200,15,o),
(200,50,cs),
(200,85,o),
(173,112,o),
(138,112,cs),
(103,112,o),
(76,85,o),
(76,50,cs)
);
},
{
closed = 1;
nodes = (
(192,728,l),
(84,728,l),
(128,192,l),
(148,192,l)
);
}
);
width = 276;
}
);
unicode = 33;
},
{
color = 4;
glyphname = question;
kernLeft = question;
kernRight = question;
lastChange = "2025-05-11 14:50:03 +0000";
layers = (
{
layerId = m01;
shapes = (
{
closed = 1;
nodes = (
(190,15,o),
(217,-12,o),
(252,-12,cs),
(287,-12,o),
(314,15,o),
(314,50,cs),
(314,85,o),
(287,112,o),
(252,112,cs),
(217,112,o),
(190,85,o),
(190,50,cs)
);
},
{
closed = 1;
nodes = (
(260,192,l),
(252,286,o),
(303,325,o),
(345,353,cs),
(444,420,o),
(484,480,o),
(484,556,cs),
(484,669,o),
(394,740,o),
(266,740,cs),
(150,740,o),
(53,682,o),
(28,584,c),
(121,544,l),
(129,632,o),
(178,696,o),
(264,696,cs),
(347,696,o),
(388,637,o),
(388,562,cs),
(388,510,o),
(368,473,o),
(308,419,cs),
(222,343,o),
(201,284,o),
(240,192,c)
);
}
);
width = 520;
}
);
unicode = 63;
},
{
color = 4;
glyphname = periodcentered;
kernLeft = periodcentered;
kernRight = periodcentered;
lastChange = "2025-05-10 23:08:46 +0000";
layers = (
{
layerId = m01;
shapes = (
{
closed = 1;
nodes = (
(64,219,o),
(91,192,o),
(126,192,cs),
(161,192,o),
(188,219,o),
(188,254,cs),
(188,289,o),
(161,316,o),
(126,316,cs),
(91,316,o),
(64,289,o),
(64,254,cs)
);
}
);
width = 252;
}
);
unicode = 183;
},
{
color = 4;
glyphname = bullet;
lastChange = "2025-05-10 23:08:46 +0000";
layers = (
{
layerId = m01;
shapes = (
{
closed = 1;
nodes = (
(242,144,o),
(300,200,o),
(300,272,cs),
(300,343,o),
(242,400,o),
(174,400,cs),
(103,400,o),
(44,343,o),
(44,272,cs),
(44,200,o),
(103,144,o),
(170,144,cs)
);
}
);
width = 344;
}
);
unicode = 8226;
},
{
color = 4;
glyphname = asterisk;
lastChange = "2025-05-11 14:52:46 +0000";
layers = (
{
layerId = m01;
shapes = (
{
closed = 1;
nodes = (
(80,402,l),
(212,516,l),
(180,344,l),
(268,344,l),
(236,516,l),
(368,402,l),
(412,478,l),
(248,536,l),
(412,594,l),
(368,670,l),
(236,556,l),
(268,728,l),
(180,728,l),
(212,556,l),
(80,670,l),
(36,594,l),
(200,536,l),
(36,478,l)
);
}
);
width = 448;
}
);
unicode = 42;
},
{
color = 4;
glyphname = numbersign;
kernLeft = numbersign;
kernRight = numbersign;
lastChange = "2025-05-10 23:08:46 +0000";
layers = (
{
layerId = m01;
shapes = (
{
closed = 1;
nodes = (
(112,456,l),
(233,456,l),
(188,272,l),
(52,272,l),
(52,224,l),
(176,224,l),
(120,0,l),
(169,0,l),
(225,224,l),
(406,224,l),
(350,0,l),
(399,0,l),
(455,224,l),
(582,224,l),
(582,272,l),
(467,272,l),
(513,456,l),
(642,456,l),
(642,504,l),
(525,504,l),
(581,728,l),
(532,728,l),
(476,504,l),
(294,504,l),
(350,728,l),
(301,728,l),
(245,504,l),
(112,504,l)
);
},
{
closed = 1;
nodes = (
(282,456,l),
(464,456,l),
(418,272,l),
(237,272,l)
);
}
);
width = 686;
}
);
unicode = 35;
},
{
color = 4;
glyphname = slash;
kernLeft = slash;
kernRight = slash;
lastChange = "2025-06-09 22:49:11 +0000";
layers = (
{
layerId = m01;
shapes = (
{
closed = 1;
nodes = (
(309,740,l),
(24,-40,l),
(75,-40,l),
(360,740,l)
);
}
);
width = 388;
}
);
unicode = 47;
},
{
color = 4;
glyphname = backslash;
kernLeft = backslash;
kernRight = backslash;
lastChange = "2025-05-10 23:08:46 +0000";
layers = (
{
layerId = m01;
shapes = (
{
closed = 1;
nodes = (
(313,-40,l),
(364,-40,l),
(79,740,l),
(28,740,l)
);
}
);
width = 388;
}
);
metricLeft = "=|slash";
metricRight = "=|slash";
unicode = 92;
},
{
color = 4;
glyphname = hyphen;
kernLeft = hyphen;
kernRight = hyphen;
lastChange = "2025-05-10 23:08:46 +0000";
layers = (
{
layerId = m01;
shapes = (
{
closed = 1;
nodes = (
(372,296,l),
(52,296,l),
(52,232,l),
(372,232,l)
);
}
);
width = 424;
}
);
unicode = 45;
},
{
color = 4;
glyphname = endash;
kernLeft = hyphen;
kernRight = hyphen;
lastChange = "2025-05-10 23:08:46 +0000";
layers = (
{
layerId = m01;
shapes = (
{
closed = 1;
nodes = (
(532,288,l),
(52,288,l),
(52,240,l),
(532,240,l)
);
}
);
width = 584;
}
);
metricLeft = "=hyphen";
metricRight = "=hyphen";
unicode = 8211;
},
{
color = 4;
glyphname = emdash;
kernLeft = hyphen;
kernRight = hyphen;
lastChange = "2025-05-10 23:08:46 +0000";
layers = (
{
layerId = m01;
shapes = (
{
closed = 1;
nodes = (
(812,288,l),
(52,288,l),
(52,240,l),
(812,240,l)
);
}
);
width = 864;
}
);
metricLeft = "=hyphen";
metricRight = "=hyphen";
unicode = 8212;
},
{
color = 4;
glyphname = underscore;
kernLeft = underscore;
kernRight = underscore;
lastChange = "2025-06-08 11:57:08 +0000";
layers = (
{
layerId = m01;
shapes = (
{
closed = 1;
nodes = (
(504,-24,l),
(24,-24,l),
(24,-72,l),
(504,-72,l)
);
}
);
width = 528;
}
);
unicode = 95;
},
{
color = 4;
glyphname = parenleft;
kernLeft = parenleft;
kernRight = parenleft;
lastChange = "2025-05-10 23:08:46 +0000";
layers = (
{
layerId = m01;
shapes = (
{
closed = 1;
nodes = (
(136,505,o),
(172,660,o),
(284,788,c),
(268,802,l),
(100,658,o),
(44,534,o),
(44,344,cs),
(44,154,o),
(100,30,o),
(268,-114,c),
(284,-100,l),
(172,28,o),
(136,183,o),
(136,344,cs)
);
}
);
width = 294;
}
);
unicode = 40;
},
{
color = 4;
glyphname = braceleft;
kernLeft = braceleft;
kernRight = braceleft;
lastChange = "2025-05-10 23:08:46 +0000";
layers = (
{
layerId = m01;
shapes = (
{
closed = 1;
nodes = (
(32,334,l),
(44,334,ls),
(151,327,o),
(127,227,o),
(110,124,cs),
(91,7,o),
(81,-116,o),
(288,-116,c),
(288,-96,l),
(170,-82,o),
(182,20,o),
(195,119,cs),
(209,222,o),
(231,328,o),
(112,344,c),
(231,360,o),
(209,466,o),
(195,569,cs),
(182,668,o),
(170,770,o),
(288,784,c),
(288,804,l),
(81,804,o),
(91,681,o),
(110,564,cs),
(127,461,o),
(151,361,o),
(44,354,cs),
(32,354,l)
);
}
);
width = 316;
}
);
unicode = 123;
},
{
color = 4;
glyphname = bracketleft;
kernLeft = bracketleft;
kernRight = bracketleft;
lastChange = "2025-05-10 23:08:46 +0000";
layers = (
{
layerId = m01;
shapes = (
{
closed = 1;
nodes = (
(308,792,l),
(76,792,l),
(76,-104,l),
(308,-104,l),
(308,-60,l),
(164,-60,l),
(164,748,l),
(308,748,l)
);
}
);
width = 324;
}
);
unicode = 91;
},
{
color = 4;
glyphname = quotesinglbase;
kernLeft = period;
kernRight = period;
lastChange = "2025-05-10 23:08:46 +0000";
layers = (
{
layerId = m01;
shapes = (
{
closed = 1;
nodes = (
(72,-112,l),
(156,-84,o),
(188,-24,o),
(188,30,cs),
(188,87,o),
(153,112,o),
(118,112,cs),
(83,112,o),
(56,85,o),
(56,50,cs),
(56,-6,o),
(118,-19,o),
(140,5,c),
(140,-31,o),
(114,-66,o),
(64,-97,c)
);
}
);
width = 244;
}
);
metricLeft = "=period";
metricRight = "=period";
unicode = 8218;
},
{
color = 4;
glyphname = quotedblbase;
kernLeft = period;
kernRight = period;
lastChange = "2025-05-10 23:08:46 +0000";
layers = (
{
layerId = m01;
shapes = (
{
closed = 1;
nodes = (
(72,-112,l),
(156,-84,o),
(188,-24,o),
(188,30,cs),
(188,87,o),
(153,112,o),
(118,112,cs),
(83,112,o),
(56,85,o),
(56,50,cs),
(56,-6,o),
(118,-19,o),
(140,5,c),
(140,-31,o),
(114,-66,o),
(64,-97,c)
);
},
{
closed = 1;
nodes = (
(244,-112,l),
(328,-84,o),
(360,-24,o),
(360,30,cs),
(360,87,o),
(325,112,o),
(290,112,cs),
(255,112,o),
(228,85,o),
(228,50,cs),
(228,-6,o),
(290,-19,o),
(312,5,c),
(312,-31,o),
(286,-66,o),
(236,-97,c)
);
}
);
width = 416;
}
);
metricLeft = "=period";
metricRight = "=period";
unicode = 8222;
},
{
color = 4;
glyphname = quoteleft;
kernLeft = quoteleft;
kernRight = quoteleft;
lastChange = "2025-06-08 12:08:31 +0000";
layers = (
{
layerId = m01;
shapes = (
{
closed = 1;
nodes = (
(164,764,l),
(80,736,o),
(48,676,o),
(48,622,cs),
(48,565,o),
(83,540,o),
(118,540,cs),
(153,540,o),
(180,567,o),
(180,602,cs),
(180,658,o),
(118,671,o),
(96,647,c),
(96,683,o),
(122,718,o),
(172,749,c)
);
}
);
width = 232;
}
);
unicode = 8216;
},
{
color = 4;
glyphname = quoteright;
kernLeft = quoteright;
kernRight = quoteright;
lastChange = "2025-06-10 01:26:17 +0000";
layers = (
{
layerId = m01;
shapes = (
{
closed = 1;
nodes = (
(64,540,l),
(148,568,o),
(180,628,o),
(180,682,cs),
(180,739,o),
(145,764,o),
(110,764,cs),
(75,764,o),
(48,737,o),
(48,702,cs),
(48,646,o),
(110,633,o),
(132,657,c),
(132,621,o),
(106,586,o),
(56,555,c)
);
}
);
width = 216;
}
);
unicode = 8217;
},
{
color = 4;
glyphname = guillemetleft;
kernLeft = guilsinglleft;
kernRight = guilsinglleft;
lastChange = "2025-06-08 22:37:42 +0000";
layers = (
{
layerId = m01;
shapes = (
{
closed = 1;
nodes = (
(270,83,l),
(284,97,l),
(140,281,l),
(284,465,l),
(270,479,l),
(44,291,l),
(44,271,l)
);
},
{
closed = 1;
nodes = (
(462,83,l),
(476,97,l),
(332,281,l),
(476,465,l),
(462,479,l),
(236,291,l),
(236,271,l)
);
}
);
width = 512;
}
);
metricLeft = "=guilsinglleft";
metricRight = "=guilsinglleft";
unicode = 171;
},
{
color = 4;
glyphname = guilsinglleft;
kernLeft = guilsinglleft;
kernRight = guilsinglleft;
lastChange = "2025-06-09 22:25:38 +0000";
layers = (
{
layerId = m01;
shapes = (
{
closed = 1;
nodes = (
(270,83,l),
(284,97,l),
(140,281,l),
(284,465,l),
(270,479,l),
(44,291,l),
(44,271,l)
);
}
);
width = 320;
}
);
unicode = 8249;
},
{
color = 4;
glyphname = quotedbl;
kernLeft = quotesingle;
kernRight = quotesingle;
lastChange = "2025-05-10 23:08:46 +0000";
layers = (
{
layerId = m01;
shapes = (
{
closed = 1;
nodes = (
(48,756,l),
(84,540,l),
(104,540,l),
(140,756,l),
(140,764,l),
(48,764,l)
);
},
{
closed = 1;
nodes = (
(196,756,l),
(232,540,l),
(252,540,l),
(288,756,l),
(288,764,l),
(196,764,l)
);
}
);
width = 336;
}
);
metricLeft = "=quotesingle";
metricRight = "=quotesingle";
unicode = 34;
},
{
color = 4;
glyphname = quotesingle;
kernLeft = quotesingle;
kernRight = quotesingle;
lastChange = "2025-05-10 23:08:46 +0000";
layers = (
{
layerId = m01;
shapes = (
{
closed = 1;
nodes = (
(48,756,l),
(84,540,l),
(104,540,l),
(140,756,l),
(140,764,l),
(48,764,l)
);
}
);
width = 188;
}
);
unicode = 39;
},
{
color = 1;
glyphname = florin;
kernLeft = florin;
kernRight = florin;
lastChange = "2025-05-10 23:08:46 +0000";
layers = (
{
layerId = m01;
shapes = (
{
closed = 1;
nodes = (
(172,178,ls),
(160,95,o),
(128,32,o),
(65,32,cs),
(23,32,o),
(6,59,o),
(-2,105,c),
(-92,68,l),
(-68,12,o),
(-17,-12,o),
(49,-12,cs),
(133,-12,o),
(243,30,o),
(267,198,cs),
(303,460,l),
(455,460,l),
(462,504,l),
(310,504,l),
(323,602,ls),
(335,685,o),
(367,748,o),
(430,748,cs),
(472,748,o),
(489,721,o),
(497,675,c),
(587,712,l),
(563,768,o),
(512,792,o),
(446,792,cs),
(362,792,o),
(252,750,o),
(228,582,cs),
(218,504,l),
(122,504,l),
(115,460,l),
(211,460,l)
);
}
);
width = 511;
}
);
unicode = 402;
},
{
color = 1;
glyphname = at;
kernLeft = O;
kernRight = O;
lastChange = "2025-05-10 23:08:46 +0000";
layers = (
{
layerId = m01;
shapes = (
{
closed = 1;
nodes = (
(741,504,l),
(678,281,ls),
(664,231,o),
(653,180,o),
(653,161,cs),
(653,137,o),
(669,123,o),
(695,123,cs),
(779,123,o),
(866,261,o),
(866,397,cs),
(866,569,o),
(726,696,o),
(534,696,cs),
(304,696,o),
(128,516,o),
(128,282,cs),
(128,33,o),
(302,-87,o),
(514,-87,cs),
(614,-87,o),
(722,-59,o),
(815,0,c),
(827,-16,l),
(703,-101,o),
(578,-131,o),
(474,-131,cs),
(241,-131,o),
(40,15,o),
(40,283,cs),
(40,540,o),
(254,740,o),
(528,740,cs),
(756,740,o),
(910,602,o),
(910,399,cs),
(910,225,o),
(797,75,o),
(668,75,cs),
(606,75,o),
(574,112,o),
(568,185,c),
(542,140,o),
(483,72,o),
(403,72,cs),
(307,72,o),
(260,144,o),
(260,238,cs),
(260,377,o),
(387,516,o),
(514,516,cs),
(573,516,o),
(614,499,o),
(636,431,c),
(721,504,l)
);
},
{
closed = 1;
nodes = (
(431,472,o),
(361,337,o),
(354,234,cs),
(349,172,o),
(368,120,o),
(418,120,cs),
(500,120,o),
(594,256,o),
(594,377,cs),
(594,439,o),
(567,472,o),
(521,472,cs)
);
}
);
width = 950;
}
);
unicode = 64;
},
{
color = 1;
glyphname = ampersand;
kernLeft = ampersand;
kernRight = ampersand;
lastChange = "2025-05-10 23:08:46 +0000";
layers = (
{
layerId = m01;
shapes = (
{
closed = 1;
nodes = (
(446,136,l),
(398,74,o),
(339,35,o),
(269,44,cs),
(203,53,o),
(152,102,o),
(152,164,cs),
(152,235,o),
(221,295,o),
(287,338,c)
);
},
{
closed = 1;
nodes = (
(248,664,o),
(288,702,o),
(352,702,cs),
(415,702,o),
(456,663,o),
(456,601,cs),
(456,546,o),
(423,483,o),
(342,423,c),
(336,431,ls),
(299,478,o),
(248,542,o),
(248,607,cs)
);
},
{
closed = 1;
nodes = (
(48,52,o),
(133,-12,o),
(246,-12,cs),
(340,-12,o),
(417,29,o),
(481,92,c),
(519,42,o),
(531,20,o),
(531,0,c),
(720,0,l),
(720,24,l),
(687,29,ls),
(657,33,o),
(636,47,o),
(617,71,cs),
(544,165,l),
(586,224,o),
(619,290,o),
(647,358,c),
(567,393,l),
(550,336,o),
(528,276,o),
(500,222,c),
(369,389,l),
(512,476,o),
(542,524,o),
(546,585,cs),
(554,706,o),
(416,740,o),
(352,740,cs),
(257,740,o),
(156,689,o),
(156,587,cs),
(156,505,o),
(209,437,o),
(254,380,cs),
(261,372,l),
(164,318,o),
(48,260,o),
(48,144,cs)
);
}
);
width = 724;
}
);
unicode = 38;
},
{
color = 1;
glyphname = paragraph;
kernLeft = paragraph;
kernRight = paragraph;
lastChange = "2025-05-10 23:08:46 +0000";
layers = (
{
layerId = m01;
shapes = (
{
closed = 1;
nodes = (
(312,-160,l),
(312,684,l),
(432,684,l),
(432,-160,l),
(484,-160,l),
(484,640,ls),
(484,680,o),
(504,696,o),
(556,704,c),
(556,728,l),
(196,728,ls),
(100,728,o),
(28,657,o),
(28,562,cs),
(28,467,o),
(100,396,o),
(196,396,cs),
(260,396,l),
(260,-160,l)
);
}
);
width = 592;
}
);
unicode = 182;
},
{
color = 1;
glyphname = section;
kernLeft = S;
kernRight = S;
lastChange = "2025-05-10 23:08:46 +0000";
layers = (
{
layerId = m01;
shapes = (
{
closed = 1;
nodes = (
(417,-156,o),
(480,-84,o),
(480,14,cs),
(480,77,o),
(446,122,o),
(377,155,c),
(447,180,o),
(480,235,o),
(480,306,cs),
(480,388,o),
(425,441,o),
(302,478,cs),
(180,515,o),
(155,571,o),
(155,610,cs),
(155,665,o),
(208,696,o),
(264,696,cs),
(307,696,o),
(367,679,o),
(393,596,c),
(463,631,l),
(432,718,o),
(341,740,o),
(272,740,cs),
(160,740,o),
(74,683,o),
(74,577,cs),
(74,507,o),
(115,465,o),
(187,431,c),
(120,409,o),
(74,358,o),
(74,281,cs),
(74,193,o),
(143,150,o),
(249,110,cs),
(366,66,o),
(395,37,o),
(395,-9,cs),
(395,-75,o),
(338,-112,o),
(278,-112,cs),
(212,-112,o),
(158,-66,o),
(128,17,c),
(52,-23,l),
(105,-125,o),
(189,-156,o),
(279,-156,cs)
);
},
{
closed = 1;
nodes = (
(155,376,o),
(207,398,o),
(266,400,c),
(371,361,o),
(395,331,o),
(395,287,cs),
(395,227,o),
(348,191,o),
(295,185,c),
(181,222,o),
(155,276,o),
(155,314,cs)
);
}
);
width = 528;
}
);
metricLeft = "=S";
metricRight = "=S";
unicode = 167;
},
{
color = 1;
glyphname = copyright;
kernRight = copyright;
lastChange = "2025-05-10 23:08:46 +0000";
layers = (
{
layerId = m01;
shapes = (
{
closed = 1;
nodes = (
(213,740,o),
(52,578,o),
(52,364,cs),
(52,150,o),
(214,-12,o),
(428,-12,cs),
(643,-12,o),
(804,150,o),
(804,364,cs),
(804,578,o),
(642,740,o),
(428,740,cs)
);
},
{
closed = 1;
nodes = (
(615,692,o),
(756,551,o),
(756,364,cs),
(756,177,o),
(615,36,o),
(428,36,cs),
(241,36,o),
(100,177,o),
(100,364,cs),
(100,551,o),
(241,692,o),
(428,692,cs)
);
},
{
closed = 1;
nodes = (
(526,150,o),
(580,205,o),
(606,267,c),
(589,275,l),
(553,226,o),
(501,206,o),
(459,206,cs),
(349,206,o),
(310,296,o),
(310,380,cs),
(310,481,o),
(364,538,o),
(432,538,cs),
(491,538,o),
(518,499,o),
(527,443,c),
(596,474,l),
(577,536,o),
(520,578,o),
(442,578,cs),
(319,578,o),
(226,486,o),
(226,364,cs),
(226,234,o),
(322,150,o),
(432,150,cs)
);
}
);
width = 856;
}
);
metricLeft = "=O";
metricRight = "=O";
unicode = 169;
},
{
color = 1;
glyphname = registered;
kernLeft = registered;
kernRight = registered;
lastChange = "2025-05-10 23:08:46 +0000";
layers = (
{
layerId = m01;
shapes = (
{
closed = 1;
nodes = (
(356,704,o),
(432,628,o),
(432,528,cs),
(432,428,o),
(356,352,o),
(256,352,cs),
(156,352,o),
(80,428,o),
(80,528,cs),
(80,628,o),
(156,704,o),
(256,704,cs)
);
},
{
closed = 1;
nodes = (
(136,740,o),
(44,648,o),
(44,528,cs),
(44,408,o),
(136,316,o),
(256,316,cs),
(376,316,o),
(468,408,o),
(468,528,cs),
(468,648,o),
(376,740,o),
(256,740,cs)
);
},
{
closed = 1;
nodes = (
(231,598,ls),
(231,603,o),
(234,606,o),
(239,606,cs),
(267,606,ls),
(286,606,o),
(300,592,o),
(300,574,cs),
(300,557,o),
(286,544,o),
(267,544,cs),
(231,544,l)
);
},
{
closed = 1;
nodes = (
(231,520,l),
(235,520,ls),
(249,520,o),
(251,515,o),
(258,506,cs),
(297,454,ls),
(302,448,o),
(305,440,o),
(305,432,c),
(368,432,l),
(368,442,l),
(353,445,o),
(349,446,o),
(340,458,cs),
(289,522,l),
(320,529,o),
(340,546,o),
(340,577,cs),
(340,611,o),
(311,630,o),
(259,630,cs),
(168,630,l),
(168,620,l),
(187,617,o),
(191,614,o),
(191,600,cs),
(191,462,ls),
(191,448,o),
(187,445,o),
(168,442,c),
(168,432,l),
(255,432,l),
(255,442,l),
(232,444,o),
(231,450,o),
(231,462,cs)
);
}
);
width = 512;
}
);
unicode = 174;
},
{
color = 1;
glyphname = trademark;
kernLeft = trademark;
kernRight = trademark;
lastChange = "2025-05-10 23:08:46 +0000";
layers = (
{
layerId = m01;
shapes = (
{
closed = 1;
nodes = (
(242,440,l),
(242,454,l),
(214,459,o),
(207,464,o),
(207,484,cs),
(207,692,ls),
(207,700,o),
(211,704,o),
(218,704,cs),
(242,704,ls),
(279,704,o),
(297,689,o),
(305,654,cs),
(307,646,l),
(322,646,l),
(308,728,l),
(57,728,l),
(44,646,l),
(58,646,l),
(60,654,ls),
(69,689,o),
(87,704,o),
(124,704,cs),
(147,704,ls),
(155,704,o),
(159,700,o),
(159,692,cs),
(159,484,ls),
(159,464,o),
(152,459,o),
(124,454,c),
(124,440,l)
);
},
{
closed = 1;
nodes = (
(680,705,o),
(687,709,o),
(715,714,c),
(715,728,l),
(625,728,l),
(542,523,l),
(457,728,l),
(366,728,l),
(366,714,l),
(395,709,o),
(403,705,o),
(401,684,cs),
(386,482,ls),
(385,465,o),
(373,460,o),
(353,456,c),
(353,442,l),
(444,442,l),
(444,456,l),
(421,460,o),
(409,464,o),
(410,482,cs),
(424,684,l),
(523,440,l),
(535,440,l),
(633,684,l),
(648,483,ls),
(649,463,o),
(636,460,o),
(613,456,c),
(613,442,l),
(728,442,l),
(728,456,l),
(706,461,o),
(696,464,o),
(695,482,cs),
(681,684,ls)
);
}
);
width = 764;
}
);
unicode = 8482;
},
{
color = 1;
glyphname = degree;
kernLeft = degree;
kernRight = degree;
lastChange = "2025-05-10 23:08:46 +0000";
layers = (
{
layerId = m01;
shapes = (
{
closed = 1;
nodes = (
(274,452,o),
(336,514,o),
(336,596,cs),
(336,678,o),
(274,740,o),
(192,740,cs),
(110,740,o),
(48,678,o),
(48,596,cs),
(48,514,o),
(110,452,o),
(192,452,cs)
);
},
{
closed = 1;
nodes = (
(137,500,o),
(96,541,o),
(96,596,cs),
(96,651,o),
(137,692,o),
(192,692,cs),
(247,692,o),
(288,651,o),
(288,596,cs),
(288,541,o),
(247,500,o),
(192,500,cs)
);
}
);
width = 384;
}
);
unicode = 176;
},
{
color = 1;
glyphname = bar;
lastChange = "2025-05-10 23:08:46 +0000";
layers = (
{
layerId = m01;
shapes = (
{
closed = 1;
nodes = (
(68,-240,l),
(120,-240,l),
(120,876,l),
(68,876,l)
);
}
);
width = 188;
}
);
unicode = 124;
},
{
color = 1;
glyphname = brokenbar;
lastChange = "2025-05-10 23:08:46 +0000";
layers = (
{
layerId = m01;
shapes = (
{
closed = 1;
nodes = (
(68,430,l),
(120,430,l),
(120,876,l),
(68,876,l)
);
},
{
closed = 1;
nodes = (
(68,-240,l),
(120,-240,l),
(120,206,l),
(68,206,l)
);
}
);
width = 188;
}
);
metricLeft = "=bar";
metricRight = "=bar";
unicode = 166;
},
{
color = 1;
glyphname = trademark.ss02;
kernLeft = trademark;
kernRight = trademark;
lastChange = "2025-05-10 23:08:46 +0000";
layers = (
{
layerId = m01;
shapes = (
{
closed = 1;
nodes = (
(242,440,l),
(242,454,l),
(214,459,o),
(207,464,o),
(207,484,cs),
(207,692,ls),
(207,700,o),
(211,704,o),
(218,704,cs),
(242,704,ls),
(279,704,o),
(297,689,o),
(305,654,cs),
(307,646,l),
(322,646,l),
(308,728,l),
(57,728,l),
(44,646,l),
(58,646,l),
(60,654,ls),
(69,689,o),
(87,704,o),
(124,704,cs),
(147,704,ls),
(155,704,o),
(159,700,o),
(159,692,cs),
(159,484,ls),
(159,464,o),
(152,459,o),
(124,454,c),
(124,440,l)
);
},
{
closed = 1;
nodes = (
(696,705,o),
(703,709,o),
(731,714,c),
(731,728,l),
(642,728,l),
(548,515,l),
(454,728,l),
(362,728,l),
(362,714,l),
(390,709,o),
(397,705,o),
(397,684,cs),
(397,486,ls),
(397,466,o),
(390,461,o),
(362,456,c),
(362,442,l),
(455,442,l),
(455,456,l),
(427,461,o),
(421,466,o),
(421,486,cs),
(421,683,l),
(529,440,l),
(541,440,l),
(648,683,l),
(648,486,ls),
(648,466,o),
(642,461,o),
(614,456,c),
(614,442,l),
(731,442,l),
(731,456,l),
(703,461,o),
(696,466,o),
(696,486,cs),
(696,684,ls)
);
}
);
width = 767;
}
);
metricLeft = "=trademark";
metricRight = "=trademark";
},
{
color = 1;
glyphname = cent;
kernLeft = o;
kernRight = c;
lastChange = "2025-05-10 23:08:46 +0000";
layers = (
{
layerId = m01;
shapes = (
{
ref = c;
},
{
closed = 1;
nodes = (
(269,-124,l),
(315,-124,l),
(315,620,l),
(269,620,l)
);
}
);
width = 538;
}
);
metricLeft = "=o";
metricRight = "=c";
unicode = 162;
},
{
color = 1;
glyphname = currency;
lastChange = "2025-05-10 23:08:46 +0000";
layers = (
{
layerId = m01;
shapes = (
{
closed = 1;
nodes = (
(321,52,o),
(364,68,o),
(398,95,c),
(471,22,l),
(504,55,l),
(431,128,l),
(458,162,o),
(474,205,o),
(474,252,cs),
(474,299,o),
(458,342,o),
(431,376,c),
(504,449,l),
(471,482,l),
(398,409,l),
(364,436,o),
(321,452,o),
(274,452,cs),
(227,452,o),
(184,436,o),
(150,409,c),
(77,482,l),
(44,449,l),
(117,376,l),
(90,342,o),
(74,299,o),
(74,252,cs),
(74,205,o),
(90,162,o),
(117,128,c),
(44,55,l),
(77,22,l),
(150,95,l),
(184,68,o),
(227,52,o),
(274,52,cs)
);
},
{
closed = 1;
nodes = (
(190,100,o),
(122,168,o),
(122,252,cs),
(122,336,o),
(190,404,o),
(274,404,cs),
(358,404,o),
(426,336,o),
(426,252,cs),
(426,168,o),
(358,100,o),
(274,100,cs)
);
}
);
width = 548;
}
);
unicode = 164;
},
{
color = 1;
glyphname = dollar;
kernLeft = S;
kernRight = S;
lastChange = "2025-05-10 23:08:46 +0000";
layers = (
{
layerId = m01;
shapes = (
{
ref = S;
},
{
closed = 1;
nodes = (
(286,-124,l),
(334,-124,l),
(334,844,l),
(286,844,l)
);
}
);
width = 620;
}
);
metricLeft = "=S";
metricRight = "=S";
unicode = 36;
},
{
color = 1;
glyphname = euro;
kernLeft = O;
kernRight = C;
lastChange = "2025-05-10 23:08:46 +0000";
layers = (
{
layerId = m01;
shapes = (
{
alignment = -1;
pos = (110,0);
ref = C;
},
{
closed = 1;
nodes = (
(484,416,l),
(484,464,l),
(36,464,l),
(36,416,l)
);
},
{
closed = 1;
nodes = (
(484,288,l),
(484,336,l),
(36,336,l),
(36,288,l)
);
}
);
width = 858;
}
);
metricLeft = "=O-16";
metricRight = "=C";
unicode = 8364;
},
{
color = 1;
glyphname = sterling;
kernLeft = sterling;
kernRight = sterling;
lastChange = "2025-05-10 23:08:46 +0000";
layers = (
{
layerId = m01;
shapes = (
{
closed = 1;
nodes = (
(521,-12,o),
(583,49,o),
(610,156,c),
(589,167,l),
(554,93,o),
(519,71,o),
(474,71,cs),
(399,71,o),
(307,134,o),
(184,64,c),
(264,112,o),
(282,194,o),
(282,256,cs),
(282,282,o),
(279,306,o),
(274,330,c),
(492,330,l),
(492,378,l),
(262,378,l),
(240,451,o),
(209,513,o),
(208,578,cs),
(207,662,o),
(263,691,o),
(327,691,cs),
(411,691,o),
(452,644,o),
(480,552,c),
(570,592,l),
(534,688,o),
(456,740,o),
(339,740,cs),
(195,740,o),
(112,661,o),
(112,545,cs),
(112,487,o),
(133,432,o),
(155,378,c),
(44,378,l),
(44,330,l),
(174,330,l),
(190,288,o),
(203,246,o),
(203,203,cs),
(203,146,o),
(171,74,o),
(83,18,c),
(93,0,l),
(277,80,o),
(336,-12,o),
(438,-12,cs)
);
}
);
width = 650;
}
);
unicode = 163;
},
{
color = 1;
glyphname = yen;
kernRight = yen;
lastChange = "2025-05-10 23:08:46 +0000";
layers = (
{
layerId = m01;
shapes = (
{
ref = Y;
},
{
closed = 1;
nodes = (
(587,174,l),
(587,222,l),
(139,222,l),
(139,174,l)
);
},
{
closed = 1;
nodes = (
(587,302,l),
(587,350,l),
(139,350,l),
(139,302,l)
);
}
);
width = 720;
}
);
metricLeft = "=Y";
metricRight = "=Y";
unicode = 165;
},
{
color = 0;
glyphname = plus;
kernLeft = plus;
kernRight = plus;
lastChange = "2025-05-10 23:08:46 +0000";
layers = (
{
layerId = m01;
shapes = (
{
closed = 1;
nodes = (
(288,340,l),
(476,340,l),
(476,388,l),
(288,388,l),
(288,572,l),
(240,572,l),
(240,388,l),
(52,388,l),
(52,340,l),
(240,340,l),
(240,156,l),
(288,156,l)
);
}
);
width = 528;
}
);
unicode = 43;
},
{
color = 0;
glyphname = minus;
kernLeft = plus;
kernRight = plus;
lastChange = "2025-05-10 23:08:46 +0000";
layers = (
{
layerId = m01;
shapes = (
{
closed = 1;
nodes = (
(476,340,l),
(476,388,l),
(52,388,l),
(52,340,l)
);
}
);
width = 528;
}
);
metricLeft = "=plus";
metricRight = "=plus";
unicode = 8722;
},
{
color = 0;
glyphname = multiply;
kernLeft = multiply;
kernRight = multiply;
lastChange = "2025-05-10 23:08:46 +0000";
layers = (
{
layerId = m01;
shapes = (
{
closed = 1;
nodes = (
(293,362,l),
(450,519,l),
(416,553,l),
(259,396,l),
(102,553,l),
(68,519,l),
(225,362,l),
(68,205,l),
(102,171,l),
(259,328,l),
(416,171,l),
(450,205,l)
);
}
);
width = 518;
}
);
unicode = 215;
},
{
color = 0;
glyphname = divide;
kernLeft = plus;
kernRight = plus;
lastChange = "2025-05-10 23:08:46 +0000";
layers = (
{
layerId = m01;
shapes = (
{
closed = 1;
nodes = (
(294,476,o),
(316,498,o),
(316,528,cs),
(316,558,o),
(294,580,o),
(264,580,cs),
(234,580,o),
(212,558,o),
(212,528,cs),
(212,498,o),
(234,476,o),
(264,476,cs)
);
},
{
closed = 1;
nodes = (
(476,340,l),
(476,388,l),
(52,388,l),
(52,340,l)
);
},
{
closed = 1;
nodes = (
(294,148,o),
(316,170,o),
(316,200,cs),
(316,230,o),
(294,252,o),
(264,252,cs),
(234,252,o),
(212,230,o),
(212,200,cs),
(212,170,o),
(234,148,o),
(264,148,cs)
);
}
);
width = 528;
}
);
metricLeft = "=plus";
metricRight = "=plus";
unicode = 247;
},
{
color = 0;
glyphname = equal;
kernLeft = plus;
kernRight = plus;
lastChange = "2025-05-10 23:08:46 +0000";
layers = (
{
layerId = m01;
shapes = (
{
closed = 1;
nodes = (
(500,430,l),
(500,478,l),
(76,478,l),
(76,430,l)
);
},
{
closed = 1;
nodes = (
(500,250,l),
(500,298,l),
(76,298,l),
(76,250,l)
);
}
);
width = 576;
}
);
unicode = 61;
},
{
color = 0;
glyphname = notequal;
kernLeft = plus;
kernRight = plus;
lastChange = "2025-05-10 23:08:46 +0000";
layers = (
{
layerId = m01;
shapes = (
{
alignment = 1;
pos = (-24,0);
ref = equal;
},
{
closed = 1;
nodes = (
(106,102,l),
(476,626,l),
(422,626,l),
(52,102,l)
);
}
);
width = 528;
}
);
metricLeft = "=plus";
metricRight = "=plus";
unicode = 8800;
},
{
color = 0;
glyphname = greater;
lastChange = "2025-05-10 23:08:46 +0000";
layers = (
{
layerId = m01;
shapes = (
{
closed = 1;
nodes = (
(24,148,l),
(384,340,l),
(384,388,l),
(24,580,l),
(24,525,l),
(330,364,l),
(24,203,l)
);
}
);
width = 416;
}
);
unicode = 62;
},
{
color = 0;
glyphname = plusminus;
kernLeft = plus;
kernRight = plus;
lastChange = "2025-05-10 23:08:46 +0000";
layers = (
{
layerId = m01;
shapes = (
{
closed = 1;
nodes = (
(288,340,l),
(476,340,l),
(476,388,l),
(288,388,l),
(288,572,l),
(240,572,l),
(240,388,l),
(52,388,l),
(52,340,l),
(240,340,l),
(240,156,l),
(288,156,l)
);
},
{
closed = 1;
nodes = (
(476,0,l),
(476,48,l),
(52,48,l),
(52,0,l)
);
}
);
width = 528;
}
);
metricLeft = "=plus";
metricRight = "=plus";
unicode = 177;
},
{
color = 0;
glyphname = asciitilde;
kernLeft = plus;
kernRight = plus;
lastChange = "2025-05-10 23:08:46 +0000";
layers = (
{
layerId = m01;
shapes = (
{
closed = 1;
nodes = (
(76,285,l),
(87,314,o),
(97,329,o),
(128,329,cs),
(190,329,o),
(244,285,o),
(302,285,cs),
(362,285,o),
(404,332,o),
(412,399,c),
(388,399,l),
(377,368,o),
(362,353,o),
(332,353,cs),
(274,353,o),
(218,399,o),
(158,399,cs),
(98,399,o),
(66,353,o),
(52,285,c)
);
}
);
width = 464;
}
);
metricLeft = "=plus";
metricRight = "=plus";
unicode = 126;
},
{
color = 0;
glyphname = asciicircum;
lastChange = "2025-05-10 23:08:46 +0000";
layers = (
{
layerId = m01;
shapes = (
{
closed = 1;
nodes = (
(404,456,l),
(240,740,l),
(192,740,l),
(28,456,l),
(84,456,l),
(216,685,l),
(348,456,l)
);
}
);
width = 432;
}
);
unicode = 94;
},
{
color = 0;
glyphname = percent;
kernLeft = percent;
kernRight = percent;
lastChange = "2025-05-10 23:08:46 +0000";
layers = (
{
layerId = m01;
shapes = (
{
closed = 1;
nodes = (
(610,728,l),
(100,0,l),
(159,0,l),
(669,728,l)
);
},
{
closed = 1;
nodes = (
(104,734,o),
(44,662,o),
(44,554,cs),
(44,446,o),
(104,374,o),
(190,374,cs),
(276,374,o),
(336,446,o),
(336,554,cs),
(336,662,o),
(276,734,o),
(190,734,cs)
);
},
{
closed = 1;
nodes = (
(237,706,o),
(266,649,o),
(266,542,cs),
(266,445,o),
(243,402,o),
(196,402,cs),
(146,402,o),
(114,459,o),
(114,566,cs),
(114,663,o),
(138,706,o),
(184,706,cs)
);
},
{
closed = 1;
nodes = (
(493,354,o),
(433,282,o),
(433,174,cs),
(433,66,o),
(493,-6,o),
(579,-6,cs),
(665,-6,o),
(725,66,o),
(725,174,cs),
(725,282,o),
(665,354,o),
(579,354,cs)
);
},
{
closed = 1;
nodes = (
(626,326,o),
(655,269,o),
(655,162,cs),
(655,65,o),
(632,22,o),
(585,22,cs),
(535,22,o),
(503,79,o),
(503,186,cs),
(503,283,o),
(527,326,o),
(573,326,cs)
);
}
);
width = 769;
}
);
unicode = 37;
},
{
color = 3;
glyphname = dieresiscomb;
lastChange = "2025-05-10 23:45:25 +0000";
layers = (
{
anchors = (
{
name = _top;
pos = (136,600);
}
);
layerId = m01;
shapes = (
{
closed = 1;
nodes = (
(0,648,o),
(24,624,o),
(56,624,cs),
(88,624,o),
(112,648,o),
(112,680,cs),
(112,712,o),
(88,736,o),
(56,736,cs),
(24,736,o),
(0,712,o),
(0,680,cs)
);
},
{
closed = 1;
nodes = (
(160,648,o),
(184,624,o),
(216,624,cs),
(248,624,o),
(272,648,o),
(272,680,cs),
(272,712,o),
(248,736,o),
(216,736,cs),
(184,736,o),
(160,712,o),
(160,680,cs)
);
}
);
width = 272;
}
);
unicode = 776;
},
{
color = 3;
glyphname = dotaccentcomb;
lastChange = "2025-05-10 23:45:25 +0000";
layers = (
{
anchors = (
{
name = _top;
pos = (62,600);
}
);
layerId = m01;
shapes = (
{
closed = 1;
nodes = (
(0,647,o),
(27,620,o),
(62,620,cs),
(97,620,o),
(124,647,o),
(124,682,cs),
(124,717,o),
(97,744,o),
(62,744,cs),
(27,744,o),
(0,717,o),
(0,682,cs)
);
}
);
width = 124;
}
);
unicode = 775;
},
{
color = 3;
glyphname = gravecomb;
lastChange = "2025-05-10 23:45:25 +0000";
layers = (
{
anchors = (
{
name = _top;
pos = (120,600);
}
);
layerId = m01;
shapes = (
{
closed = 1;
nodes = (
(0,752,l),
(140,600,l),
(160,600,l),
(96,760,l),
(0,760,l)
);
}
);
width = 160;
}
);
unicode = 768;
},
{
color = 3;
glyphname = acutecomb;
lastChange = "2025-05-10 23:45:25 +0000";
layers = (
{
anchors = (
{
name = _top;
pos = (40,600);
}
);
layerId = m01;
shapes = (
{
closed = 1;
nodes = (
(64,760,l),
(0,600,l),
(20,600,l),
(160,752,l),
(160,760,l)
);
}
);
width = 160;
}
);
unicode = 769;
},
{
color = 3;
glyphname = hungarumlautcomb;
lastChange = "2025-05-10 23:45:25 +0000";
layers = (
{
anchors = (
{
name = _top;
pos = (108,600);
}
);
layerId = m01;
shapes = (
{
closed = 1;
nodes = (
(64,760,l),
(0,600,l),
(20,600,l),
(160,752,l),
(160,760,l)
);
},
{
closed = 1;
nodes = (
(216,760,l),
(152,600,l),
(172,600,l),
(312,752,l),
(312,760,l)
);
}
);
width = 312;
}
);
unicode = 779;
},
{
color = 3;
glyphname = caroncomb.alt;
lastChange = "2025-05-10 23:45:27 +0000";
layers = (
{
anchors = (
{
name = _topright;
pos = (0,600);
}
);
layerId = m01;
shapes = (
{
closed = 1;
nodes = (
(24,784,l),
(0,600,l),
(20,600,l),
(112,776,l),
(112,784,l)
);
}
);
width = 112;
}
);
},
{
color = 3;
glyphname = circumflexcomb;
lastChange = "2025-05-10 23:45:25 +0000";
layers = (
{
anchors = (
{
name = _top;
pos = (144,600);
}
);
layerId = m01;
shapes = (
{
closed = 1;
nodes = (
(104,760,l),
(0,600,l),
(20,600,l),
(144,696,l),
(268,600,l),
(288,600,l),
(184,760,l)
);
}
);
width = 288;
}
);
unicode = 770;
},
{
color = 3;
glyphname = caroncomb;
lastChange = "2025-05-10 23:45:25 +0000";
layers = (
{
anchors = (
{
name = _top;
pos = (156,600);
}
);
layerId = m01;
shapes = (
{
closed = 1;
nodes = (
(300,760,l),
(280,760,l),
(156,664,l),
(32,760,l),
(12,760,l),
(116,600,l),
(196,600,l)
);
}
);
width = 300;
}
);
unicode = 780;
},
{
color = 3;
glyphname = brevecomb;
lastChange = "2025-05-10 23:45:25 +0000";
layers = (
{
anchors = (
{
name = _top;
pos = (142,600);
}
);
layerId = m01;
shapes = (
{
closed = 1;
nodes = (
(243,694,o),
(205,668,o),
(142,668,cs),
(82,668,o),
(44,694,o),
(20,760,c),
(0,760,l),
(8,657,o),
(58,600,o),
(142,600,cs),
(226,600,o),
(276,657,o),
(284,760,c),
(264,760,l)
);
}
);
width = 284;
}
);
unicode = 774;
},
{
color = 3;
glyphname = ringcomb;
lastChange = "2025-05-10 23:47:57 +0000";
layers = (
{
anchors = (
{
name = _top;
pos = (92,600);
}
);
layerId = m01;
shapes = (
{
closed = 1;
nodes = (
(0,631,o),
(40,588,o),
(92,588,cs),
(144,588,o),
(184,631,o),
(184,680,cs),
(184,729,o),
(144,772,o),
(92,772,cs),
(40,772,o),
(0,729,o),
(0,680,cs)
);
},
{
closed = 1;
nodes = (
(44,707,o),
(65,728,o),
(92,728,cs),
(119,728,o),
(140,707,o),
(140,680,cs),
(140,653,o),
(119,632,o),
(92,632,cs),
(65,632,o),
(44,653,o),
(44,680,cs)
);
}
);
width = 184;
}
);
unicode = 778;
},
{
color = 3;
glyphname = tildecomb;
lastChange = "2025-05-10 23:45:25 +0000";
layers = (
{
anchors = (
{
name = _top;
pos = (148,600);
}
);
layerId = m01;
shapes = (
{
closed = 1;
nodes = (
(20,600,l),
(29,628,o),
(43,642,o),
(68,642,cs),
(119,642,o),
(157,600,o),
(205,600,cs),
(255,600,o),
(289,641,o),
(296,704,c),
(276,704,l),
(267,675,o),
(252,662,o),
(228,662,cs),
(180,662,o),
(138,706,o),
(88,706,cs),
(38,706,o),
(11,664,o),
(0,600,c)
);
}
);
width = 296;
}
);
unicode = 771;
},
{
color = 3;
glyphname = macroncomb;
lastChange = "2025-05-10 23:45:25 +0000";
layers = (
{
anchors = (
{
name = _top;
pos = (144,600);
}
);
layerId = m01;
shapes = (
{
closed = 1;
nodes = (
(288,644,l),
(0,644,l),
(0,600,l),
(288,600,l)
);
}
);
width = 288;
}
);
unicode = 772;
},
{
color = 3;
glyphname = commaturnedabovecomb;
lastChange = "2025-05-10 23:45:25 +0000";
layers = (
{
anchors = (
{
name = _top;
pos = (60,600);
}
);
layerId = m01;
shapes = (
{
closed = 1;
nodes = (
(101,788,l),
(24,760,o),
(0,711,o),
(0,664,cs),
(0,614,o),
(31,592,o),
(62,592,cs),
(92,592,o),
(116,616,o),
(116,646,cs),
(116,695,o),
(60,707,o),
(41,686,c),
(41,716,o),
(55,744,o),
(111,770,c)
);
}
);
width = 116;
}
);
unicode = 786;
},
{
color = 3;
glyphname = commaaccentcomb;
lastChange = "2025-05-10 23:08:46 +0000";
layers = (
{
anchors = (
{
name = _bottom;
pos = (58,0);
}
);
layerId = m01;
shapes = (
{
closed = 1;
nodes = (
(15,-252,l),
(92,-224,o),
(116,-175,o),
(116,-128,cs),
(116,-78,o),
(85,-56,o),
(54,-56,cs),
(24,-56,o),
(0,-80,o),
(0,-110,cs),
(0,-159,o),
(56,-171,o),
(75,-150,c),
(75,-180,o),
(61,-208,o),
(5,-234,c)
);
}
);
width = 116;
}
);
unicode = 806;
},
{
color = 3;
glyphname = cedillacomb;
lastChange = "2025-05-10 23:08:46 +0000";
layers = (
{
anchors = (
{
name = _bottom;
pos = (131,0);
}
);
layerId = m01;
shapes = (
{
closed = 1;
nodes = (
(62,-252,o),
(94,-252,cs),
(161,-252,o),
(223,-216,o),
(223,-147,cs),
(223,-111,o),
(202,-69,o),
(118,-51,c),
(157,16,l),
(121,16,l),
(56,-97,l),
(56,-105,l),
(100,-111,o),
(175,-114,o),
(175,-168,cs),
(175,-200,o),
(144,-219,o),
(113,-220,cs),
(89,-221,o),
(55,-210,o),
(28,-179,c),
(0,-227,l),
(28,-244,o)
);
}
);
width = 223;
}
);
unicode = 807;
},
{
color = 3;
glyphname = ogonekcomb;
lastChange = "2025-05-10 23:08:46 +0000";
layers = (
{
anchors = (
{
name = _ogonek;
pos = (180,0);
}
);
layerId = m01;
shapes = (
{
closed = 1;
nodes = (
(148,0,l),
(72,-44,o),
(0,-116,o),
(0,-179,cs),
(0,-216,o),
(20,-252,o),
(81,-252,cs),
(142,-252,o),
(180,-217,o),
(204,-184,c),
(192,-169,l),
(160,-200,o),
(77,-213,o),
(77,-152,cs),
(77,-104,o),
(114,-46,o),
(180,0,c)
);
}
);
width = 204;
}
);
unicode = 808;
},
{
color = 3;
glyphname = ogonekcomb.alt;
lastChange = "2025-05-10 23:08:46 +0000";
layers = (
{
anchors = (
{
name = _ogonek;
pos = (172,16);
}
);
layerId = m01;
shapes = (
{
closed = 1;
nodes = (
(160,-200,o),
(77,-213,o),
(77,-152,cs),
(77,-100,o),
(124,-40,o),
(172,16,c),
(148,16,l),
(87,-29,o),
(0,-108,o),
(0,-179,cs),
(0,-216,o),
(20,-252,o),
(81,-252,cs),
(142,-252,o),
(180,-217,o),
(204,-184,c),
(192,-169,l)
);
}
);
width = 204;
}
);
},
{
color = 2;
glyphname = dieresis;
lastChange = "2025-05-10 23:45:25 +0000";
layers = (
{
anchors = (
{
name = _top;
pos = (184,600);
}
);
layerId = m01;
shapes = (
{
closed = 1;
nodes = (
(48,648,o),
(72,624,o),
(104,624,cs),
(136,624,o),
(160,648,o),
(160,680,cs),
(160,712,o),
(136,736,o),
(104,736,cs),
(72,736,o),
(48,712,o),
(48,680,cs)
);
},
{
closed = 1;
nodes = (
(208,648,o),
(232,624,o),
(264,624,cs),
(296,624,o),
(320,648,o),
(320,680,cs),
(320,712,o),
(296,736,o),
(264,736,cs),
(232,736,o),
(208,712,o),
(208,680,cs)
);
}
);
width = 368;
}
);
unicode = 168;
},
{
color = 2;
glyphname = dotaccent;
lastChange = "2025-05-10 23:45:25 +0000";
layers = (
{
anchors = (
{
name = _top;
pos = (110,600);
}
);
layerId = m01;
shapes = (
{
closed = 1;
nodes = (
(48,647,o),
(75,620,o),
(110,620,cs),
(145,620,o),
(172,647,o),
(172,682,cs),
(172,717,o),
(145,744,o),
(110,744,cs),
(75,744,o),
(48,717,o),
(48,682,cs)
);
}
);
width = 220;
}
);
unicode = 729;
},
{
color = 2;
glyphname = grave;
lastChange = "2025-05-10 23:45:25 +0000";
layers = (
{
anchors = (
{
name = _top;
pos = (168,600);
}
);
layerId = m01;
shapes = (
{
closed = 1;
nodes = (
(48,752,l),
(188,600,l),
(208,600,l),
(144,760,l),
(48,760,l)
);
}
);
width = 256;
}
);
unicode = 96;
},
{
color = 2;
glyphname = acute;
lastChange = "2025-05-10 23:45:25 +0000";
layers = (
{
anchors = (
{
name = _top;
pos = (90,600);
}
);
layerId = m01;
shapes = (
{
closed = 1;
nodes = (
(112,760,l),
(48,600,l),
(68,600,l),
(208,752,l),
(208,760,l)
);
}
);
width = 256;
}
);
unicode = 180;
},
{
color = 2;
glyphname = hungarumlaut;
lastChange = "2025-05-10 23:45:25 +0000";
layers = (
{
anchors = (
{
name = _top;
pos = (156,600);
}
);
layerId = m01;
shapes = (
{
closed = 1;
nodes = (
(112,760,l),
(48,600,l),
(68,600,l),
(208,752,l),
(208,760,l)
);
},
{
closed = 1;
nodes = (
(264,760,l),
(200,600,l),
(220,600,l),
(360,752,l),
(360,760,l)
);
}
);
width = 408;
}
);
unicode = 733;
},
{
color = 2;
glyphname = circumflex;
lastChange = "2025-05-10 23:45:25 +0000";
layers = (
{
anchors = (
{
name = _top;
pos = (192,600);
}
);
layerId = m01;
shapes = (
{
closed = 1;
nodes = (
(152,760,l),
(48,600,l),
(68,600,l),
(192,696,l),
(316,600,l),
(336,600,l),
(232,760,l)
);
}
);
width = 384;
}
);
unicode = 710;
},
{
color = 2;
glyphname = caron;
lastChange = "2025-05-10 23:45:25 +0000";
layers = (
{
anchors = (
{
name = _top;
pos = (192,600);
}
);
layerId = m01;
shapes = (
{
closed = 1;
nodes = (
(336,760,l),
(316,760,l),
(192,664,l),
(68,760,l),
(48,760,l),
(152,600,l),
(232,600,l)
);
}
);
width = 384;
}
);
unicode = 711;
},
{
color = 2;
glyphname = breve;
lastChange = "2025-05-10 23:45:25 +0000";
layers = (
{
anchors = (
{
name = _top;
pos = (190,600);
}
);
layerId = m01;
shapes = (
{
closed = 1;
nodes = (
(291,694,o),
(253,668,o),
(190,668,cs),
(130,668,o),
(92,694,o),
(68,760,c),
(48,760,l),
(56,657,o),
(106,600,o),
(190,600,cs),
(274,600,o),
(324,657,o),
(332,760,c),
(312,760,l)
);
}
);
width = 380;
}
);
unicode = 728;
},
{
color = 2;
glyphname = ring;
lastChange = "2025-05-10 23:45:25 +0000";
layers = (
{
anchors = (
{
name = _top;
pos = (140,600);
}
);
layerId = m01;
shapes = (
{
closed = 1;
nodes = (
(48,635,o),
(88,592,o),
(140,592,cs),
(192,592,o),
(232,635,o),
(232,684,cs),
(232,733,o),
(192,776,o),
(140,776,cs),
(88,776,o),
(48,733,o),
(48,684,cs)
);
},
{
closed = 1;
nodes = (
(92,711,o),
(113,732,o),
(140,732,cs),
(167,732,o),
(188,711,o),
(188,684,cs),
(188,657,o),
(167,636,o),
(140,636,cs),
(113,636,o),
(92,657,o),
(92,684,cs)
);
}
);
width = 280;
}
);
unicode = 730;
},
{
color = 2;
glyphname = tilde;
lastChange = "2025-05-10 23:45:25 +0000";
layers = (
{
anchors = (
{
name = _top;
pos = (196,600);
}
);
layerId = m01;
shapes = (
{
closed = 1;
nodes = (
(68,600,l),
(77,628,o),
(91,642,o),
(116,642,cs),
(167,642,o),
(205,600,o),
(253,600,cs),
(303,600,o),
(337,641,o),
(344,704,c),
(324,704,l),
(315,675,o),
(300,662,o),
(276,662,cs),
(228,662,o),
(186,706,o),
(136,706,cs),
(86,706,o),
(59,664,o),
(48,600,c)
);
}
);
width = 392;
}
);
unicode = 732;
},
{
color = 2;
glyphname = macron;
lastChange = "2025-05-10 23:45:25 +0000";
layers = (
{
anchors = (
{
name = _top;
pos = (192,600);
}
);
layerId = m01;
shapes = (
{
closed = 1;
nodes = (
(336,644,l),
(48,644,l),
(48,600,l),
(336,600,l)
);
}
);
width = 384;
}
);
unicode = 175;
},
{
color = 2;
glyphname = cedilla;
lastChange = "2025-05-10 23:08:46 +0000";
layers = (
{
anchors = (
{
name = _bottom;
pos = (179,0);
}
);
layerId = m01;
shapes = (
{
closed = 1;
nodes = (
(110,-252,o),
(142,-252,cs),
(209,-252,o),
(271,-216,o),
(271,-147,cs),
(271,-111,o),
(250,-69,o),
(166,-51,c),
(205,16,l),
(169,16,l),
(104,-97,l),
(104,-105,l),
(148,-111,o),
(223,-114,o),
(223,-168,cs),
(223,-200,o),
(192,-219,o),
(161,-220,cs),
(137,-221,o),
(103,-210,o),
(76,-179,c),
(48,-227,l),
(76,-244,o)
);
}
);
width = 319;
}
);
unicode = 184;
},
